<?xml version="1.0" ?><svg id="Layer_1" style="enable-background:new 0 0 15.2 28.1;" version="1.1" viewBox="0 0 15.2 28.1" xml:space="preserve" xmlns="http://www.w3.org/2000/svg" xmlns:xlink="http://www.w3.org/1999/xlink"><style type="text/css">
	.st0{fill:#3B5999;}
</style><path class="st0" d="M15,9.4c0.1-0.3,0.1-0.5,0.1-0.5c-0.2,0.1-0.3,0.2-0.6,0.2c-0.2-0.1,0.4-0.3-0.3-0.2c-0.3-0.1,0-0.2,0.3-0.3  c-0.4,0.1-0.6,0.1-0.8,0c-0.2-0.1-0.5-0.1-0.6-0.1c0,0,0.3-0.1,0.3-0.1c-0.1,0-0.2,0-0.3,0c0,0-0.1,0-0.1,0L13,8.6  c-0.1,0-0.2,0-0.2-0.1c-0.1,0.1,0.1,0.3-0.1,0.5c-0.1-0.1-0.4,0.1-0.5-0.1c0.5,0.1-0.1-0.2,0.3-0.3c-0.1,0-0.2,0-0.3,0  c0,0,0,0,0-0.1c-0.4-0.2-0.2,0.3-0.7,0.3c0.1-0.1-0.1-0.3-0.2-0.2c0.2,0,0.1,0.2-0.1,0.3c-0.2-0.1-0.2,0-0.2,0c0,0-0.1,0.1-0.1,0.1  l0.1,0C11.1,9,11,9,10.9,9.1C10.9,9,11,9,11,9c-0.1,0.1-0.2,0.1-0.2,0c0-0.1,0-0.1-0.2-0.1c0.1-0.2,0.3-0.3,0.3-0.3  c-0.2,0,0.2-0.2,0-0.2c-0.2,0.1-0.1,0.1-0.3,0c0,0,0.1,0.2,0.1,0.2c0,0-0.3,0-0.3-0.1c0,0.1,0.1,0.2,0.1,0.2c-0.1,0-0.1,0-0.3,0.1  c0.1-0.2,0.1-0.2,0-0.3c0-0.1-0.1-0.2,0-0.3l0.4,0C11,7.9,10.6,7.5,10.7,7l-0.1,0.2c-0.2-0.1,0-0.3-0.1-0.5c0.1,0,0.2-0.1,0.3-0.1  c-0.1-0.1,0-0.1-0.2-0.3c0,0,0.2,0,0.2,0c0.2,0-0.1-0.5,0.3-0.5c-0.1,0.2,0.1,0.3-0.1,0.4c0.1,0,0.2,0,0.2-0.1  c0.1,0.1,0.3-0.2,0.5-0.1c0.1-0.1,0.1-0.2,0.2-0.2c0,0,0,0.1,0,0.1c0-0.1,0.3-0.1,0.1-0.3c0.2,0.2,0.5,0.2,0.9,0.2  c0.4,0,0.7,0,1.1,0.2c0.2,0,0.5-0.1,0.7-0.1c0-0.2,0-0.4,0-0.6c0,0.1,0.1,0.1,0.1,0.1c0.1-0.5-0.4-0.6-0.3-1  c0.2-0.3,0.1,0.3,0.2,0.2c0.2,0,0.2-0.3,0.2-0.4c0-0.2-0.1-0.4,0-0.5l0,0.1c0.2-0.2-0.2-0.6-0.1-1c0,0,0,0,0.1,0  c-0.1-0.1-0.2-0.3-0.3-0.5c-0.1-0.2-0.1-0.5-0.1-0.7c0.2,0.1,0.1,0.2,0.3,0c0-0.2-0.3,0.2-0.4-0.2c0.1-0.2,0.2-0.5,0.4-0.8l0,0.4  c0.2-0.3,0.1-0.5,0-0.7c-0.1,0-0.1,0-0.2,0l0.1-0.1c-0.8,0-1,0.3-1.6,0.3l0.1,0.1c-0.4,0.3-0.3-0.2-0.6,0l-0.1-0.3  c-0.2,0.1-0.6,0.3-1,0.3c0.2-0.2,0.6-0.3,0.8-0.4c-0.2,0-0.6,0-0.7,0.2c0.1,0,0.2-0.1,0.2-0.1c-0.2,0.2-0.5,0.3-0.9,0.3  C11.3,0,10.2,0.4,10,0C9.3,0.2,8.7-0.1,7.8,0.1c0.4,0.4-0.2,0.1-0.1,0.5C7.5,0.7,7.5,0.7,7.5,0.7c0,0,0,0,0,0l0,0  c0,0-0.6-0.1-0.6-0.1C6.6,0.6,6.9,0.5,6.9,0.4C6.5,0.5,6.6,0.3,6.3,0.3c0.1,0.1,0,0.3-0.3,0.4l0.4,0C6,1.1,5.7,0.6,5.3,1.2l0.1-0.2  c-0.2,0.2-1,0.9-0.9,1.4c-0.1,0-0.2,0-0.2-0.1C3.8,2.8,3.9,3.8,3.6,4.3L3.5,4.2c0,0.1,0.1,0.3,0,0.4c0,0-0.1-0.1-0.1,0  c0,0.1,0.1,0.4,0,0.6L3.3,5C3,5.7,3.5,6.1,3.5,6.7C3.2,6.6,3.1,7.1,3,7.4l0,0c0,0.2,0,0.4,0,0.5c0,0.2,0.1,0.4,0.1,0.4  c0.1,0.1,0.2,0.3,0.3,0.5C3.2,8.7,3,8.6,2.9,8.6l-0.1,0l-0.3,0c-0.1,0-0.5,0-0.9-0.1c0.2,0.1,0,0.3-0.1,0.3C1.2,8.7,1,9,0.8,8.7  l0.1,0C0.7,8.5,0.4,8.5,0.1,8.5c0,0.2,0,0.5,0,0.7l0.4,0.3c-0.3,0.3-0.2,1.4-0.2,1.6c0.1,0.4,0.1,0.8-0.1,1c0.1,0.2,0.1,0.4,0.2,0.5  l-0.2,0c0,0.1,0,0.2,0,0.3c0,0.2,0,0.3,0,0.5c0,0.3,0,0.7,0,1.2L0,14.5c0,0.4,0.2,0.4,0.4,0.4c0.3-0.1,0.5-0.3,0.7-0.3  c0,0-0.1,0.3-0.1,0.3c0.5,0,0.9,0.1,1.4,0.1c0.1,0,0.3,0,0.4,0c0.1,0,0.1,0,0.1,0c0,0,0-0.1,0.1-0.1c0,0,0,0.1-0.1,0.2  c0.1,0,0,0.2,0.4-0.2C3.2,14.9,3.2,15,3.2,15c0,0.1,0.1,0.1,0.2,0.1l-0.2,0.1c0.1,0,0.2,0,0.3,0c0.1,0,0.1,0,0.1,0.2  c0,0.1-0.1,0.1-0.1,0c0,0.2,0.2,0.2,0.1,0.5l-0.1-0.1c0,0.3,0.1,0.3,0.2,0.4c0.1,0.2-0.1,0.5-0.2,0.6c0.1,0,0.3,0.2,0.2,0.4  c-0.1,0-0.1,0-0.1-0.1c-0.1,0.5,0.2,0.7,0,1c-0.1,0-0.1,0-0.1,0.1c0-0.4,0-0.7,0-0.7c-0.2,0-0.2,0.3-0.5,0.1c0.1,0.2,0.5,0.7,0.4,1  c0,0,0,0-0.1,0l0,0c0,0.1,0,0.1,0,0.2c0,0.1-0.1,0.2-0.1,0.2c-0.2,0-0.1,0.4-0.1,0.5c0.2,0,0.2,0.2,0.4,0c0,0,0,0,0-0.1  c0,0,0-0.1,0-0.1l0,0c0-0.1,0-0.2,0-0.4c0.1,0.1,0.2,0.2,0.1,0.4c0.1,0.1,0.3,0.2,0.3,0.2c-0.3,0.2-0.5,0.6-0.6,0.7  c0.1,0.5,0.1,1.1,0.5,1.4c0.1,0.1-0.1,0.2-0.2,0.2c0-0.1,0-0.2-0.1-0.2c0.1,0.3,0,0.8,0.3,0.9c-0.1,0.3-0.3-0.2-0.2,0.3l-0.1-0.1  c-0.4,0.9,0.7,1.5,0.1,2.5c0-0.1,0.1-0.1,0.1-0.1c-0.1,0.4-0.1,0.7-0.1,1.2c0,0.5,0.1,1,0.1,1.5c0.5,0,1,0,1.6,0.2  c0.3,0.1,0.4-0.1,0.6-0.2L5.9,28l0.3-0.3c0.5-0.2,0.8,0.6,1.4,0.2l-0.1-0.2c0.2,0,0.7-0.1,0.6,0.1c0,0,0.1-0.2,0.2-0.1l0,0.1  l0.5-0.2c0.4,0.1-0.1,0.5,0.5,0.5c0.2,0,0.6-0.3,0.6-0.4c-0.1,0-0.2-0.1-0.2-0.2l0.2-0.1c0-0.3,0.1-0.6-0.1-0.8c0,0,0-0.1,0-0.1  c0.1,0,0.1,0,0.2,0c-0.1-0.1-0.3-0.3-0.6-0.2c0.1,0.1,0.2,0.1,0.2,0.2l-0.3,0.2l-0.1-0.2l0.3,0c-0.2-0.2-0.3,0-0.4,0.1  c0-0.1-0.1-0.2-0.1-0.2l-0.3,0.3c0-0.1,0.2-0.3-0.1-0.3c-0.2,0.2,0.2,0.3-0.1,0.4c-0.2-0.2-0.1-0.3-0.3-0.2c0-0.1,0-0.1,0.1-0.2  c-0.2,0.1-0.5,0-0.6,0.2c-0.2-0.2-0.6,0.1-0.6-0.3c-0.1,0.1-0.3,0.3-0.5,0.3c0.3-0.4-0.6,0-0.5-0.4c-0.1,0.2-0.3,0.2-0.5,0.2  c-0.1,0-0.3,0-0.3,0c0,0-0.1,0-0.1,0.1c0,0,0-0.1,0.1-0.1c-0.1,0,0-0.1,0-0.2c-0.2,0.3-0.3,0.4-0.6,0.5l0,0c0.2-0.3,0.3-0.3,0.4-0.4  c0.1-0.1,0.2-0.1,0.3-0.2c-0.1,0.1-0.1,0.1-0.1,0.1c-0.1,0.1-0.1,0-0.3,0.2c0.2-0.2,0.1-0.1,0.3-0.3c-0.4,0.2-0.1,0-0.3,0  C4.9,26.2,5,26.2,5,26.2c0,0,0.1,0,0-0.1c0.1-0.2,0.2,0.1,0.2,0.1C5.3,25.9,5,26,4.8,26c-0.1-0.4,0.2-0.2,0.3-0.3  c-0.1-0.2-0.3-0.4-0.3-0.6c0,0,0.1,0,0.1,0c-0.2-0.3,0-0.8-0.3-1.1c0,0,0,0,0.1,0c-0.1,0-0.3,0.1-0.4,0c0-0.1-0.2-0.3,0-0.3  c0,0.1,0.1,0.1,0.1,0.1l-0.1-0.2c0.3-0.1,0.1,0.2,0.3,0.2c-0.1-0.3-0.3-0.7-0.2-0.9c0.3,0,0.1,0.5,0.3,0.2l-0.1,0.4  c0.4-0.3,0,0.2,0.4,0C5.2,23,5,23,5.1,22.5c-0.1-0.1-0.2,0-0.4-0.1c-0.3-0.7,0.6-0.5,0.3-1c-0.2-0.1-0.5-0.2-0.3-0.5L5,21  c0-0.5-0.4-0.3-0.2-0.7c0.1,0.1,0.1,0.4,0.1,0.3c0.2-0.3-0.2-0.2-0.2-0.5l0.3,0c0-0.5-0.2-1-0.3-1.6c0.1,0,0.2,0.1,0.2,0  c-0.1-0.7,0-1.4,0.2-2.1l-0.2-0.2c0-0.1,0.1-0.1,0.1,0c0.1-0.3-0.1,0-0.2-0.1c0-0.1,0.1-0.2,0.2-0.1c-0.2-0.3-0.4-1.6-0.2-2.5  l0.1,0.1c0-0.1,0-0.2,0-0.3c-0.5,0.1-0.8,0.4-1.2,0.2l0.1,0c-0.3,0-0.6,0-0.9,0c-0.2,0-0.4,0-0.6,0c-0.2,0-0.4,0-0.3-0.2  c-0.1,0.1-0.1,0.1-0.1,0.1c-0.1,0,0.2-0.3-0.2-0.2c0.2-0.3,0.3-0.1,0.4-0.7c0-0.2-0.3-0.3-0.3-0.5l0.2,0l-0.2-0.3l0.3-0.2L2,11.3  c0,0.1-0.1,0.2-0.2,0.2c-0.1-0.3,0.2-0.8,0.3-0.7c0,0-0.2-0.2-0.2-0.3c0.1,0.1,0.1,0.1,0.2,0.2c-0.2-0.2,0.2,0.1,0-0.1  c-0.1,0-0.1-0.1-0.2-0.2c0,0,0.1,0,0.1,0c0.1,0,0.1,0,0.2,0l0.1,0.2c0,0,0,0,0.1,0c0,0,0,0,0,0l0.2,0l0.2,0l0.4,0l0.8,0  c-0.4-0.1-0.4-0.4-0.2-0.4l0.3,0.2c0.1-0.2-0.3-0.1-0.1-0.3c0.4,0,0.5,0.3,0.3,0.4l0.4-0.1c0.1,0.1,0,0.1,0.1,0.2  c0-0.1,0.4,0.1,0.4-0.2c0-0.2,0.1-0.4,0-0.7l0.1,0c0-0.6,0-1,0-1.4c0-0.2,0-0.4-0.1-0.6c-0.2,0-0.2-0.2-0.3-0.4C4.8,6.9,5,6.5,5,6.1  C4.9,5.8,4.8,6,4.7,5.9c0.2,0,0.2-0.4,0.3-0.2c0-0.5,0-0.6,0-1.2c-0.1,0-0.1,0.1-0.2,0c0-0.1,0.1-0.2,0.2-0.2l0,0  c0-0.4,0.3-0.7,0.5-0.9c0.3-0.2,0.6-0.4,0.6-0.7l0,0c0,0,0.2-0.5,0.3-0.5c0.2-0.1,0,0.2,0.2,0.2C6.9,2,7.4,2.2,7.8,1.9  C8,2.1,8.3,2,8.6,1.9c0.3-0.1,0.7-0.2,1,0l0-0.1c0.1-0.1,0.2,0.1,0.3,0.1c0-0.1-0.2-0.1-0.1-0.2c0.6-0.1,1.2-0.1,1.9,0l1,0.2  C12.8,2,13,2,13.1,2c0,0,0,0,0,0.1c0,0,0.4-0.5,0.4-0.4c0,0,0,0.1-0.1,0.1c0,0-0.2,0.2-0.2,0.2c0.1,0,0.1,0,0.1,0c0,0,0,0,0,0.1  l0,0.3c0,0.5,0,1,0.1,1.4c-0.1-0.1-0.1-0.1-0.1-0.1c-0.1,0.1-0.1,0.3-0.1,0.4c0,0.1,0,0.1,0.1,0.1c0,0,0.1,0,0.1,0c0,0-0.1,0-0.2,0  c-0.1,0,0.2,0.2,0.1,0.1c0,0-0.1-0.1-0.1-0.1c0,0,0,0.1,0.1,0.1c0,0,0,0,0.1,0.1c-0.2-0.1-0.2,0.1-0.4,0c0,0.1-0.1,0.1-0.1,0.1  c-0.1,0-0.2,0-0.3,0.1c0-0.3-0.6-0.3-0.9-0.1c0.1-0.1-0.2-0.1-0.1-0.2c-0.3,0-0.6,0.1-0.5,0.3c-0.3-0.2-0.7,0-1,0.2  C9.9,5.1,9.7,5.3,9.4,5.4C9.3,5.7,9.2,6,9.2,6.3c0,0.3,0,0.5,0,0.7c0,0.4,0.1,0.7,0.1,1.1C9,8,9.3,7.3,9,7.3  c0.1,0.3,0.2,0.6,0.3,0.8c0,0.1,0.1,0.3,0.1,0.5c0,0.2,0,0.4,0,0.7c0,0.3-0.1-0.1-0.2-0.1c0,0.3,0.1,0.5,0.1,0.8l0,0.2  c0,0,0,0.2,0.1,0.1l0.4,0c0.5,0,1,0,1.5-0.1c0,0-0.1,0.1-0.2,0.1c0.2,0,0.4,0,0.4-0.1c0,0-0.1,0-0.1,0c-0.1-0.1,0.1-0.2,0.2-0.3  c0.1-0.1,0.3-0.2,0.3-0.3c-0.2,0.4,0.6,0.1,0.3,0.7c0.1,0,0.2-0.1,0.1-0.2c0.1,0,0.1,0.1,0,0.2c0.4-0.1,0.3-0.2,0.6-0.2  c0,0.1-0.1,0.1-0.1,0.2c0.1-0.1,0.2-0.1,0.3-0.2c0.1,0,0.3-0.1,0.3,0c0,0,0,0.1,0,0.1c0.2,0,0.6-0.3,0.9-0.3C14,9.9,14,10,14,10  c-0.3,0.2-0.1,0.2-0.4,0.4c0,0,0.1,0.1,0.1,0.1l0.1-0.1c0,0.1,0.2,0.2,0.1,0.4c0,0-0.1-0.1-0.1-0.1c0,0,0,0,0,0.2c0,0.1,0,0.3,0,0.3  l0.1-0.3c0.1,0.3,0.4,0,0.2,0.4c0-0.1,0,0.3-0.2,0.4l0,0c0.1,0.1,0.2,0.3,0.1,0.5c-0.1,0-0.3-0.1-0.4,0c0.2,0.2,0,0.6,0.2,0.8  c-0.1-0.1-0.2-0.1-0.2-0.1l0.2,0.1C13.7,13,13.7,13,13.5,13c-0.1,0.2,0.4,0,0.2,0.3c0,0,0,0-0.1-0.1c-0.1,0.2,0,0.3,0,0.6  c-0.1,0-0.2,0-0.4,0c-0.2-0.3,0.2-0.1,0-0.3c-0.1,0-0.2,0.1-0.5,0.2c-0.3,0.1-0.6,0.1-0.9,0.1l0.1,0c-0.1,0.4-0.4-0.2-0.7,0  c0.1,0,0.1-0.2,0.1-0.2c-0.5-0.1-1.1,0.1-1.6,0.2c0,0.1,0,0.2,0,0.3l-0.1-0.2C9.5,14,9.5,14.6,9.5,15c0.1,0.1,0.1,0.3,0.2,0.2  C9.2,16,10,16.7,9.6,17.4c0-0.1-0.1-0.2-0.1-0.1l0.1,0.6c0.2,0,0.1-0.1,0.2-0.2C9.9,17.7,10,17.9,10,18c-0.1-0.3-0.3,0-0.4,0.1  c0.1,0,0.1,0,0.2,0c-0.3,0.3,0.3,0.1,0.1,0.5l-0.1,0c0,0.2,0.2,0.3,0.1,0.5c-0.2,0.1-0.1-0.2-0.3-0.2c0,0.2,0.4,0.5,0.2,0.7  c-0.1-0.1-0.1-0.2-0.1-0.3c-0.2,0.2-0.2,0.3-0.2,0.4l0,0l-0.1,0.4L9.5,20c0.5,0.3,0.1,0.6,0.4,1c-0.3-0.4-0.2-0.1-0.4-0.1  c-0.1,0.1-0.1,0.3-0.2,0.2c0.2,0.2-0.1,0.3,0.1,0.6c-0.1,0,0,0.2-0.2,0.2c0.1,0.2,0.1-0.1,0.2,0c0.2,0.4-0.3,0.9,0,1.4  c0.1,0.5,0.4,0.6,0.5,1c-0.1,0.1-0.3-0.1-0.3-0.1c-0.1,0.2-0.1,0.4,0,0.6c-0.1,0-0.1,0-0.2,0.1c0,0.2,0.3,0.1,0.2,0.4  c-0.1,0-0.2-0.1-0.3-0.2c0.1,0.2,0.2,0.4,0.3,0.6c-0.1,0.1-0.2-0.1-0.3-0.2c0.1,0.2,0.1,0.6,0.3,0.7L9.8,26c0,0.1-0.2,0-0.2,0  c-0.2-0.2,0.1-0.3,0.1-0.3l0,0.2c0.4-0.2-0.1-0.6,0-0.9l0.3,0.1l-0.3-0.3c0.1-0.1,0.3-0.1,0.3,0c0.2-0.2-0.1-0.2,0.1-0.4  c0,0,0,0,0.1,0l-0.1-0.2c0.1,0,0.2,0,0.2,0.1c0.2-0.4-0.2-0.6,0-0.8l0,0c-0.1-0.6-0.2-0.1-0.5-0.5l0.6-0.3l-0.2-0.1  c0-0.1,0-0.2,0.1-0.1c-0.2-0.2-0.1,0-0.2-0.1c0.2-0.3-0.1-0.8,0.3-0.8c-0.2-0.1-0.1,0.3-0.3,0c0.4-0.1-0.1-0.3,0.1-0.6  c0.2,0.1,0.1,0.3,0.3,0.1c-0.3-0.2,0.1-0.5,0-0.7c-0.1,0-0.1-0.1-0.1-0.1c0.1,0,0.1,0.1,0.1,0.1c0,0,0.1,0,0.1,0  c0-0.1-0.2-0.1-0.3-0.1c-0.1-0.2,0-0.4-0.1-0.7c0.1,0,0.1-0.7,0.2-1l0,0c-0.3-0.1-0.2-0.4-0.3-0.7c0.2,0,0.2,0.1,0.3,0.2l0-0.2  c-0.1-0.1-0.1-0.1-0.2-0.3l0.2,0.1c0-0.3-0.2-0.6-0.1-1c-0.2,0-0.5,0.3-0.7-0.1c0.1,0,0.3,0,0.3,0.1c0,0-0.1-0.1,0-0.2l0.2,0.2  c0.1-0.2-0.1-0.1-0.1-0.2c0.1,0,0.1-0.1,0.2-0.1c0,0-0.1,0.1,0,0.2c0-0.2,0.1-0.4,0.2-0.4c-0.1,0-0.2,0-0.2-0.1  c0-0.3,0.2-0.1,0.3-0.3c-0.1-0.1,0-0.3-0.2-0.3c0-0.1,0.1-0.1,0.2-0.1c-0.1-0.1,0-0.4-0.3-0.4l0,0l0,0c-0.1-0.2-0.1-0.3-0.1-0.5  c0.3,0,0.7,0.2,0.9,0.1l0,0.1c0.2-0.1,0.7,0,0.9-0.2c0.1,0,0.2,0.1,0.2,0.2c0.2-0.1,0.3-0.1,0.6,0c-0.2,0.1,0.1,0.1-0.2,0.1  c0.2,0,0.2,0.1,0.4,0.1c0.1,0,0.3,0,0.5-0.1c-0.1,0.2,0.4,0.2,0.6,0.2l-0.4-0.1c0.2,0,0.4,0,0.7,0l0.1,0.2c0.1,0,0.2,0,0.2,0  c0.1-0.4,0.1-1,0-1.4c0-0.5-0.1-0.6,0.2-0.8c-0.2-0.2-0.2,0.3-0.3,0.2c0.1-0.3,0.5-0.5,0.5-0.6c0.2-0.4-0.3-0.4-0.2-0.8  c-0.1,0-0.3,0.1-0.4-0.3c0.1-0.3,0.4-0.3,0.5-0.1c0,0.1,0,0.1-0.1,0.1c0,0.1,0,0.2,0.2,0.1l-0.1,0c0.1-0.1,0.1-0.2,0.1-0.3  c0-0.2,0.1-0.3,0.2-0.2c0-0.4-0.1-0.1-0.2,0.1c0.2-0.6,0.1-0.9,0.3-1.5C15.2,9.3,15,9.5,15,9.4z M3.2,19.2c0-0.1,0-0.1,0.1-0.2  C3.2,19.1,3.2,19.2,3.2,19.2l0.1,0C3.2,19.3,3.2,19.3,3.2,19.2z M4.6,18.5c0,0.1,0,0.1,0,0.2C4.7,18.7,4.6,18.6,4.6,18.5L4.6,18.5z   M4.6,17.9c0,0.1,0,0.2,0,0.3c-0.1,0-0.1,0-0.1-0.1C4.5,18.1,4.6,18,4.6,17.9z"/></svg>