<?xml version="1.0" ?><svg id="Layer_1" style="enable-background:new 0 0 29 29.1;" version="1.1" viewBox="0 0 29 29.1" xml:space="preserve" xmlns="http://www.w3.org/2000/svg" xmlns:xlink="http://www.w3.org/1999/xlink"><style type="text/css">
	.st0{fill:#E1306C;}
</style><path class="st0" d="M16.2,19.7l0,0.3c0.3-0.4,0.8-0.3,1-0.7c0,0.1,0,0.1,0,0.1c0.2,0.1,0.3-0.1,0.2-0.3c0.1,0,0.1,0.1,0.2,0.2  c0.1,0,0-0.3,0.2-0.2c0,0,0,0.1,0,0.1c0-0.1,0.2-0.1,0-0.3c0.2,0,0.2-0.2,0.3-0.2c-0.1-0.2,0.3-0.1,0-0.3c0.2,0.3,0.4,0,0.3-0.1  c0.1,0.1,0.1,0,0.2,0.1c0.1-0.1,0.1-0.2-0.1-0.3c0.4,0.1,0-0.5,0.5-0.3c0-0.3,0.1-0.6,0.1-0.9c0.3,0.2-0.1,0.3,0.2,0.4  c0-0.3-0.2-0.6,0-0.7c0.1,0,0.1,0.1,0.2,0.1c0-0.3,0.2-0.4,0.1-0.7c0,0,0.1,0,0.1,0.1c0,0,0.1-0.1-0.1-0.1l0,0.1  c-0.2,0-0.4-0.3-0.5-0.3c0.4,0.2,0.2-0.2,0.7,0.1c0,0-0.1-0.1-0.2-0.1c0,0,0.1,0,0.2,0c0-0.2-0.2-0.1-0.2-0.3c0.1,0,0.1,0,0.2,0.1  c-0.1-0.1-0.3-0.2-0.2-0.3c0,0,0.1,0,0.1,0c0-0.2-0.4-0.4-0.2-0.6c0.3,0.1,0.1-0.1,0.4-0.1l-0.1-0.1l-0.1,0c0-0.1-0.2-0.2-0.1-0.3  l0.1,0.1l-0.1-0.2l-0.1,0.1c-0.1-0.1-0.4,0-0.3-0.1c0,0,0-0.1,0.2-0.2l0,0c-0.1,0-0.2-0.1-0.1-0.2c0.1,0,0.3,0,0.4-0.1  c-0.2,0-0.1-0.2-0.4-0.2c0.1,0,0.2,0,0.2,0h-0.2c0-0.1,0.1-0.1,0.2-0.1c0-0.1-0.3,0.1-0.2-0.1c0,0,0,0,0.1,0c0-0.2-0.2-0.3-0.2-0.4  c0.3-0.1,0.1,0.1,0.3,0c-0.1-0.2-0.5-0.3-0.5-0.5l0,0c-0.4,0.2,0.1-0.2-0.1-0.2c0,0,0.2-0.1,0.2-0.1c0-0.2-0.2-0.2-0.5-0.3l0.1,0  c0-0.1-0.1-0.2-0.1-0.3c-0.1,0-0.1,0-0.2,0.1c0.3-0.6-0.6-0.2-0.4-0.7c0,0,0.1,0,0.1,0l-0.2-0.1c-0.1,0.1,0,0.1-0.1,0.2  c-0.1,0.1-0.2,0.1-0.2,0c0.1,0,0.2-0.2,0.2-0.3c0,0-0.1,0.1-0.1,0.1c0.1-0.3-0.2,0.3-0.2,0l0.1-0.1c-0.1,0-0.2,0.1-0.2,0  c0.1-0.2,0.1,0,0.2-0.2c-0.1,0-0.3,0.2-0.3,0c0.1,0,0.1,0,0.2,0c0.1-0.2,0-0.2,0-0.3l0,0l-0.1-0.2l0,0.1c-0.4,0.4-0.2,0-0.5,0.2  c0.3-0.2,0.1-0.2,0.2-0.4c0-0.1,0-0.2,0-0.2c-0.1,0.1,0-0.2-0.3,0c0-0.1-0.1,0,0-0.2c-0.1,0,0,0.1-0.1,0.2c-0.2,0.2-0.2-0.4-0.5-0.2  c-0.2,0.1-0.3,0.3-0.5,0.4c0-0.1,0.1-0.2,0.1-0.2c-0.1-0.1-0.1-0.1-0.2-0.1c0-0.1,0-0.1,0-0.2c-0.1,0-0.1,0.3-0.2,0.1  c0-0.1,0.1-0.2,0.1-0.3c-0.1,0.1-0.2,0.2-0.3,0.2c0-0.1,0.1-0.2,0.1-0.3c-0.1,0-0.3,0.1-0.3,0.3l0,0.1c0,0,0-0.2,0-0.2  c0.1-0.1,0.1,0.1,0.1,0.2l-0.1,0c0,0.4,0.2,0,0.3,0l-0.1,0.3l0.2-0.2c0,0.1,0,0.3-0.1,0.3c0,0.2,0.1-0.1,0.1,0.1c0,0,0,0,0,0.1  l0.1-0.1c0,0.1,0,0.2-0.1,0.2c0.1,0.2,0.3-0.2,0.2,0.1l0,0c0.2,0,0.1-0.2,0.3-0.4L16,10.7l0.1-0.2c0,0,0,0,0,0.1  c0.1-0.1,0-0.1,0.1-0.2c0,0.2,0.3,0,0.1,0.3c0.1-0.1,0-0.2,0.1-0.2c-0.1,0.4,0.1,0,0.1,0.2c-0.1,0.2-0.1,0-0.1,0.2  c0.2-0.3,0.1,0.1,0.2,0.1c0-0.1,0.1-0.1,0.1-0.1C16.7,11,16.6,11,16.6,11c0,0,0,0.1-0.1,0.1c0,0,0.1-0.2,0.2-0.2  c0.1,0,0.1,0.1,0.2,0.1C16.9,11,17,11.2,17,11.4l0,0c0.2-0.2,0.2-0.1,0.3-0.1c-0.1,0.1-0.2,0.2-0.2,0.2l0.1,0  c0.1-0.1,0.1-0.1,0.2-0.1l-0.1,0.1c0.1,0.1,0.3-0.1,0.3,0.1c0.1-0.1,0.3-0.5,0.5-0.4c-0.1,0.1-0.2,0.2-0.3,0.2c0,0,0.1,0,0.1,0  l-0.2,0.1c0,0.1,0.1-0.1,0.1,0c-0.1,0.1-0.1,0.1-0.1,0.2c0,0,0-0.1,0,0c0,0.1,0,0.2-0.1,0.2c0.1-0.1,0.1-0.1,0.2-0.1  c0.1,0.1-0.1,0.1-0.1,0.2c0.1-0.1,0,0.1,0.2-0.1c0,0-0.1,0.1-0.1,0.1c0.1,0,0.2,0.2,0.3,0l0,0l0,0c0.3,0,0.1,0.4,0.2,0.4l-0.1,0  c0.1,0,0.1,0.2,0.3,0.2c0,0-0.1,0.1-0.2,0.1c0.1,0,0.2,0,0.1,0.2c-0.1,0-0.1,0.1-0.1,0c0,0.1-0.1,0.2,0.1,0.2  c-0.2,0-0.2,0.1-0.1,0.2l0.1-0.1c0,0,0,0.1,0,0.1l-0.2,0.1c-0.3,0.2,0.6,0.2,0.1,0.4c0.2,0,0.1-0.1,0.3-0.1c0,0.1-0.4,0.2-0.4,0.3  c-0.1,0.1,0.4,0.1,0.3,0.2c0.1,0,0.3-0.1,0.4,0c0,0.1-0.4,0.1-0.4,0.1c0,0,0,0,0,0c0,0-0.1-0.1-0.2,0l0.1,0c-0.1,0-0.1,0.2-0.2,0.1  c0.1,0.1,0.1,0,0.2,0c-0.1,0.1,0,0.2-0.1,0.3c0,0,0.2,0,0.2,0c-0.1,0.2,0.2,0.1,0.2,0.2c-0.1,0.1-0.3,0-0.2,0.1  c-0.1,0.1-0.2,0-0.3,0C18.4,15,18,15,18,15.1L17.9,15c0,0,0,0.1,0,0.1l0.2,0c0,0,0,0-0.1,0c0.1,0,0.3,0,0.4,0.1  c-0.1,0,0.1,0.1-0.2,0.1c0.1-0.1-0.2,0-0.3-0.1c0,0,0,0,0,0.1c0,0,0,0-0.1,0c-0.2,0.1,0.2,0.1,0.2,0.2c-0.1,0-0.3,0-0.2,0  c0,0,0.2,0,0.3,0.1c-0.1,0.1,0.1,0.1,0,0.1l0.1,0c0.1,0.1,0.1,0.1,0.1,0.2c-0.1,0,0-0.1-0.1-0.1c0.2,0.1-0.3,0.1-0.2,0.2  c-0.1,0-0.2-0.1-0.3-0.1c0.1,0.2-0.2,0-0.1,0.2c0.2,0.1,0.1,0,0.3,0.2l0-0.2l0.2,0.2c0,0-0.1-0.1,0-0.2c0.1,0.1,0.1,0.1,0.2,0.1  c-0.3,0,0.1,0.2-0.1,0.2l-0.4-0.2c-0.2,0,0.1,0.3-0.1,0.4l0.1,0c0.1,0.1,0,0.1,0,0.2c-0.1-0.1-0.2-0.1-0.3-0.1  c0.1,0.1-0.1,0.1,0.2,0.3l-0.2-0.1c-0.1,0,0.2,0.4,0.1,0.5c-0.1-0.1-0.2-0.2-0.2-0.3c0,0-0.1,0,0,0.1c-0.1,0,0.1,0.2-0.1,0.2  c0,0.1,0.1,0.2,0.1,0.2c0,0-0.1-0.1-0.1-0.1c0.1,0.1,0,0.1,0.2,0.2c-0.4-0.2-0.3,0.3-0.6,0.1c0,0.1-0.1,0.2-0.2,0.3c0,0,0-0.1,0-0.1  c-0.2-0.1,0.2,0.4,0,0.3c-0.2-0.2,0-0.1-0.1-0.2c-0.3-0.4-0.1,0.1-0.3-0.1l0,0c-0.1-0.1-0.1,0.2-0.2,0.3c0,0,0,0,0-0.1  c0,0.3-0.1,0.4-0.2,0.5c0-0.2,0-0.1-0.1-0.3c0,0,0.1,0.3,0,0.4c-0.1-0.1-0.2-0.1-0.2-0.3l0.1,0c-0.1-0.2-0.1,0-0.2,0l0-0.1  c-0.1,0.1,0,0.4-0.2,0.4l0,0.1c0,0.3-0.1-0.1-0.1,0.1l-0.1-0.3c0,0.1-0.1,0.3-0.2,0.4c0-0.2,0.1-0.4,0.2-0.5c0,0-0.1,0-0.2,0.1  c0,0,0,0,0,0c0,0.2-0.1,0.4-0.2,0.4c0-0.6-0.3-0.1-0.4-0.6c-0.2,0.2-0.3-0.1-0.5-0.1c0,0.5-0.1,0-0.1,0.5c-0.1,0-0.1,0-0.1,0  c0,0,0,0,0,0l0,0l-0.1-0.3c0-0.1,0.1-0.1,0.1-0.2c-0.1-0.1,0-0.2,0-0.3c0,0.2-0.1,0.2-0.1,0.1l0,0.2c-0.2,0.2,0-0.4-0.2-0.2l0.1-0.1  c-0.1,0.1-0.2-0.1-0.5,0.2c0-0.1,0-0.2,0.1-0.2c-0.1-0.1-0.5,0.2-0.5-0.1l0.1-0.1c0,0-0.2,0.1-0.1,0c0,0,0.1-0.1,0.1-0.1  c0,0-0.2,0.1-0.2,0l0.1-0.1c0-0.2-0.4,0.1-0.6,0c0.2-0.2,0.2-0.4,0.2-0.5l0,0c-0.1-0.2-0.4-0.1-0.6-0.1c0.2-0.3-0.1-0.4,0-0.7  c0,0.1-0.2,0.1-0.3,0.1c0-0.1-0.3,0,0-0.1l0,0c0.3-0.2,0.1-0.2,0.1-0.3L11,16c0.5-0.4-0.4-0.4,0.1-0.7c-0.1,0-0.1-0.1-0.2-0.1l0.2,0  c0-0.1,0-0.2,0-0.3l0.2,0c0-0.1-0.6-0.1-0.6-0.1l0.3,0c0-0.2,0.3-0.3,0-0.5c0,0,0.1,0,0.1,0c0-0.1,0.2-0.2-0.2-0.3  c0.3,0,0-0.1-0.1-0.3l0.2,0.1c-0.2-0.1-0.3-0.1-0.4-0.3c0,0,0.1,0,0.1,0c0,0-0.2-0.1-0.1-0.2l0.1,0.1c0-0.1,0-0.1-0.2-0.2  c-0.1-0.1,0.1-0.1,0.3-0.1c-0.1,0-0.2-0.1-0.2-0.2c0.1,0,0.1,0.1,0.1,0.1c0.2-0.1-0.1-0.3,0.1-0.3c0.1,0,0.1,0,0.1,0  C11.1,12.9,11,13,11,13c0.2,0.1,0.2,0,0.5,0.2c-0.1-0.1-0.3-0.4-0.2-0.4c0,0,0,0,0.1,0l0,0c0,0,0,0,0-0.1c0,0,0.1,0,0.1,0  c0.1,0.1,0.1,0,0.2-0.1c-0.2-0.1-0.1-0.1-0.3-0.2c0,0,0,0,0,0.1c0,0,0,0,0,0l0,0c0,0,0,0.1,0,0.1c-0.1-0.1-0.1-0.2,0-0.1  c-0.1-0.1-0.2-0.2-0.3-0.2c0.3,0.1,0.5,0.1,0.6,0.2c0-0.2,0.1-0.3-0.1-0.6c0-0.1,0.1,0,0.2,0.1c0,0,0,0.1,0,0.1  c0-0.1,0.1-0.2-0.1-0.4c0.2,0,0.1,0.2,0.2,0.1l0,0.1c0.5,0.2-0.1-0.8,0.5-0.6c0,0-0.1,0-0.1-0.1c0.4,0,0.5-0.6,1-0.3  c0.1,0,0.1-0.1,0.1-0.3l0.1,0.2l0-0.3c0.1-0.2,0.4,0.5,0.5,0.1l0-0.1c0.1,0,0.2-0.1,0.2,0.1c0,0,0-0.2,0-0.1l0,0.1l0.1-0.2  c0.1,0.1,0,0.5,0.2,0.5c0.1,0,0.2-0.4,0.2-0.4c0,0-0.1-0.1-0.1-0.2l0.1-0.1c0-0.1,0-0.3,0-0.4c0,0,0,0.1,0,0l0-0.2l-0.1,0.1  c0,0,0,0,0,0c0-0.1,0-0.3-0.1-0.4l-0.1,0.2l-0.1-0.2l0.1,0c-0.1-0.2-0.1,0-0.1,0.1c0-0.1,0-0.2-0.1-0.2l-0.1,0.3  c0-0.1,0-0.3-0.1-0.3c0,0.2,0.1,0.3,0,0.4c-0.1-0.1-0.1-0.3-0.1-0.1c0-0.1,0-0.1,0-0.2c-0.1,0.1-0.2,0.1-0.2,0.3  c-0.1-0.2-0.2,0.1-0.3-0.2c0,0.1-0.1,0.3-0.1,0.3c0-0.4-0.2,0-0.3-0.4c0,0.4-0.3,0.3-0.3,0.5c0,0,0-0.1,0-0.1  c-0.1,0-0.2-0.1-0.2-0.1c0.1,0.3,0,0.4,0,0.6c-0.2-0.2-0.1-0.3-0.2-0.6c0.1,0.2-0.1,0.3,0.1,0.5c-0.1-0.1-0.1,0-0.2-0.2  c0.2,0.3,0,0.1,0,0.3c-0.2-0.1-0.2-0.3-0.3-0.1c-0.1-0.1-0.1-0.2-0.1-0.2c-0.1,0.1,0.1,0.3,0.1,0.4c-0.1,0.1-0.2-0.1-0.3-0.2  c0,0.1,0,0.4,0,0.4c0,0-0.1,0-0.1-0.1c0,0.2-0.2,0.2-0.2,0.5c0,0,0,0-0.1,0c0.1,0.1,0.2,0.2,0.3,0.3c0,0,0,0.2-0.1,0.1  c0,0,0-0.1,0-0.1l0,0.1c-0.2-0.2,0-0.1-0.1-0.3c0,0.1,0,0.4-0.1,0.4c-0.2-0.2,0.1-0.2-0.2-0.3l0.2,0c-0.3-0.2,0.1,0-0.3-0.3  c-0.2,0.1-0.1,0.2-0.3,0.3c0.1,0.1,0.2,0.1,0.2,0.3c0,0.4-0.6-0.3-0.5,0.1c0.1,0.1,0.3,0.4,0.1,0.4l-0.2-0.2c-0.1,0.1,0.3,0.3,0,0.4  c-0.1-0.1,0-0.2,0-0.2c-0.3,0,0.1,0.2,0,0.2l-0.2-0.1c-0.1,0.2,0,0.5-0.1,0.7c-0.1,0-0.1-0.1-0.2-0.1c0,0.3-0.3,0.5-0.5,0.7l0.2,0.2  c0,0-0.1,0-0.1,0C9.2,13,9.5,13,9.6,13c0,0.1-0.1,0-0.2,0c0.1,0.2,0.3,0.6,0,0.7l-0.1,0c-0.1,0.1,0.4,0.2,0.2,0.3l0,0  c-0.1,0.3,0.1,0.6-0.2,0.9c0.3,0-0.1,0.3,0.3,0.3c-0.2,0.2-0.3,0.2-0.4,0.4c0,0.1,0.3,0,0.4,0.1l-0.2,0.1l0.3,0.1l-0.3,0.1L9.4,16  c0,0,0.1-0.1,0.1-0.1c0.1,0.1-0.1,0.3-0.2,0.4l0.3,0.2c-0.1,0-0.1,0-0.2,0c0.3,0.1-0.2,0.1,0,0.2c0,0,0.1,0,0.2-0.1  c-0.1,0.1,0,0.3,0.1,0.4l-0.2,0c0.1,0.2,0.3,0.4,0.4,0.6c0-0.1,0.3-0.2,0.3-0.2l-0.2,0.2c0.1,0,0-0.1,0.2-0.1c0,0.1-0.2,0.2-0.3,0.2  l0.1,0c-0.1,0-0.1,0-0.2,0.1c0.1-0.1-0.1,0.3,0.2,0.2l-0.1,0c0.1,0.2,0.3,0.2,0.4,0.4c0.2-0.1,0.2-0.1,0.3-0.1  c0.1,0.1,0.1,0.4,0.2,0.5c0.2,0,0.1-0.1,0.3-0.2c-0.1,0.2,0,0.2-0.1,0.3c0.2,0.1,0.2,0.1,0.5,0.1c0-0.1,0-0.1,0.1-0.2  c0.1,0,0,0.1,0,0.2l0,0c0.4-0.1,0.3,0.8,0.7,0.6l0,0l0.3-0.1c0.1,0.1-0.1,0.1-0.1,0.3c0.3-0.2,0.4,0.2,0.7,0  c0.1,0.6,0.6,0.1,0.8,0.4l0-0.1c0.1-0.1,0.1,0.1,0.1,0.1c0-0.1-0.1-0.1,0-0.2c0.5-0.1,1,0.2,1.6,0.2C16.1,20.1,15.9,19.4,16.2,19.7z   M11.5,12.7C11.5,12.8,11.4,12.7,11.5,12.7C11.4,12.7,11.4,12.7,11.5,12.7L11.5,12.7C11.4,12.7,11.5,12.7,11.5,12.7z M10.1,12.1  C10.1,12.2,10.1,12.2,10.1,12.1L10.1,12.1C10.1,12.2,10.1,12.2,10.1,12.1z M10,12.4C10,12.4,10,12.4,10,12.4c0.1-0.1,0.2,0,0.2,0  C10.1,12.4,10.1,12.4,10,12.4z M24.4,6.9L24.4,6.9C24.5,7,24.5,6.9,24.4,6.9l-0.1,0C24.3,6.9,24.3,6.9,24.4,6.9c-0.2,0-0.3,0-0.5,0  c0.1,0-0.1-0.1,0.1-0.1C24,6.9,24.3,6.8,24.4,6.9c-0.1-0.1-0.1-0.1-0.1-0.1c0,0,0,0,0.1,0c0.2-0.1-0.3,0-0.3-0.1  c0.1,0,0.2-0.1,0.2-0.1c0,0-0.2,0.1-0.3,0.1c0.1-0.1-0.1,0-0.1-0.1l0,0c-0.1,0-0.1,0-0.2,0c0.1,0,0.1,0,0.1,0c-0.2,0,0.2-0.2,0-0.2  c0.1-0.1,0.2-0.1,0.3-0.1c-0.2,0,0.1-0.1,0-0.1C24,6.3,24,6.3,23.9,6.4l0.2,0l-0.3,0c0,0,0.1,0,0.1,0c-0.1,0-0.1,0-0.2,0.1  c0.2-0.1-0.2,0,0-0.1L24,6.3c0.1-0.2-0.3,0-0.2-0.1l-0.1,0.1c-0.2,0.1,0,0-0.1,0C23.7,6.1,23.8,6,23.8,6c-0.1,0.1,0-0.1-0.3,0.1  l0.1-0.1c0-0.1-0.4,0.2-0.4,0.1c0.1-0.1,0.2-0.2,0.3-0.2c0,0,0-0.1-0.1,0c0.1-0.1-0.2,0.1-0.1,0c-0.1,0-0.2,0.1-0.2,0.1  c0,0,0.1-0.1,0.1-0.1c-0.1,0-0.1,0-0.2,0.2c0.3-0.4-0.1-0.1,0.1-0.4c-0.1,0-0.1,0-0.2,0c0,0,0-0.1,0,0c0-0.1-0.3,0.3-0.2,0.2  c0.1-0.2,0.1-0.1,0.1-0.2c0.2-0.4-0.1,0,0-0.3l0,0c0-0.2-0.2,0.1-0.2,0.1c0,0,0,0,0-0.1c-0.1,0.2-0.2,0.3-0.3,0.3  c0.1-0.2,0.1-0.1,0.1-0.3c0,0-0.1,0.3-0.2,0.3c0-0.1,0-0.2,0.1-0.4l0.1,0c0.1-0.3-0.1,0-0.1-0.1l0-0.1c-0.1,0-0.2,0.3-0.2,0.3l0,0.1  c-0.1,0.3,0-0.2-0.1,0l0-0.3c0,0.1-0.1,0.3-0.2,0.3c0-0.2,0.1-0.3,0.2-0.4c0,0-0.1,0-0.1,0.1c0,0,0,0,0,0C22,5.4,22,5.5,21.9,5.5  c0-0.6-0.1-0.2-0.2-0.6c-0.1,0.2-0.2-0.1-0.4,0c0.1,0.4,0,0,0.1,0.5c0,0,0,0,0,0l0,0l0,0l-0.1-0.2c-0.1-0.1,0-0.1,0-0.2  c-0.1,0-0.1-0.2-0.2-0.3c0.1,0.2,0,0.2,0,0.2L21.2,5c0,0.3-0.2-0.3-0.2-0.1l0-0.1c0,0.1-0.2,0.1-0.1,0.4c0,0-0.1-0.2-0.1-0.2  c-0.2,0-0.1,0.5-0.2,0.3l-0.1-0.1c0,0,0.1,0.2,0,0.1c0,0-0.1-0.1-0.1-0.1c0,0,0.1,0.2,0,0.2l-0.1-0.1c-0.2,0,0,0.4,0,0.5  c-0.2-0.2-0.4-0.3-0.4-0.3l0,0c-0.1,0.1,0,0.4,0.1,0.5c-0.3-0.1-0.3,0.1-0.5,0.1c0.1,0,0.2,0.1,0.2,0.2c-0.1,0,0.2,0.2-0.1,0l0,0  c-0.3-0.1-0.2,0-0.3,0l0.4,0.2c-0.6-0.1,0.1,0.3-0.4,0.3c0.1,0.1,0.1,0.1,0.2,0.1l-0.2,0c-0.1,0.1-0.1,0.1-0.1,0.2l-0.1,0  c0,0.1,0.6,0.1,0.6,0.2l-0.3,0c0,0.1-0.3,0.2,0,0.3c0,0-0.1,0-0.2,0c0,0-0.2,0.2,0.2,0.1c-0.3,0,0,0.1,0.1,0.1l-0.2,0  c0.3,0,0.3,0,0.4,0c0,0-0.1,0-0.1,0c0,0,0.2,0,0.1,0.1l-0.1,0c0,0.1,0.1,0,0.2,0c0.1,0,0,0.1-0.2,0.2c0.1,0,0.3-0.1,0.2,0  c-0.1,0-0.1,0-0.1,0c-0.1,0.1,0.3,0,0.1,0.1c-0.1,0-0.1,0-0.1,0.1c0-0.1,0-0.1,0-0.1c-0.2,0.1-0.2,0.1-0.4,0.2c0.2,0,0.5-0.1,0.4,0  c0,0,0,0-0.1,0l0,0c0,0,0,0,0,0c0,0,0,0.1,0,0.1c-0.1,0.1,0,0.1,0,0.1c0.2-0.1,0.2-0.1,0.3-0.2c0,0,0,0,0,0c0,0,0,0,0,0l0,0  c0,0,0,0,0,0c0.1,0,0.2-0.1,0.1,0c0.1-0.1,0.2-0.1,0.3-0.2c-0.2,0.2-0.3,0.3-0.5,0.4c0.1,0,0.2,0.1,0.5-0.1c0.1,0-0.1,0.1-0.1,0.1  c0,0,0,0-0.1,0c0.1,0,0.1,0.1,0.3-0.1c-0.1,0.1-0.2,0.2-0.1,0.2l-0.1,0.1c-0.2,0.4,0.6-0.4,0.4,0.1c0,0,0-0.1,0-0.1  c0,0.3,0.4,0,0.4,0.4c0,0.1,0.1-0.1,0.2-0.2l-0.1,0.2l0.1-0.2c0.1-0.2,0,0.6,0.2,0.2l0-0.2c0,0,0.1-0.1,0.1,0.1c0,0,0-0.2,0-0.1  l0,0.1l0.1-0.2c0.1,0.1-0.1,0.5,0.1,0.5c0,0,0.1-0.3,0.1-0.4c0,0,0-0.1,0-0.2l0-0.1c0-0.1,0-0.3,0-0.4c0,0,0,0.1,0,0l0-0.2l0,0.1  c0,0,0,0,0,0c0-0.2,0-0.3,0-0.4l0,0.2l0-0.2l0,0c0-0.2,0,0,0,0.1c0-0.1,0-0.2,0-0.2l-0.1,0.3c0-0.1,0-0.3,0-0.3c0,0.2,0,0.3-0.1,0.4  c0-0.2,0-0.3,0-0.2c0-0.1,0-0.1,0-0.2c0,0.1,0,0-0.1,0.2c0-0.2-0.1,0,0-0.3c0,0.1-0.1,0.2-0.1,0.3c0.1-0.4,0,0,0.1-0.4  c-0.1,0.3-0.1,0.1-0.2,0.3c0,0,0-0.1,0-0.1c0,0,0-0.1,0.1-0.2c-0.1,0.3-0.2,0.3-0.3,0.5c0.1-0.3,0.2-0.3,0.3-0.6  C21.5,8,21.5,8,21.4,8.2c0.1-0.2,0-0.1,0.1-0.3c-0.2,0.3,0,0.1-0.2,0.2c0.1-0.2,0.2-0.3,0.1-0.2c0.1-0.1,0.1-0.2,0.1-0.2  c0,0-0.1,0.2-0.2,0.4c-0.1,0.1,0.1-0.2,0.2-0.3c0,0.1-0.2,0.3-0.2,0.2c0,0,0-0.1,0.1-0.1c-0.1,0.2,0,0-0.2,0.2l0-0.1  C21.1,8.1,21,8.2,21,8.3c0,0-0.1,0.1,0,0c0,0,0.1,0,0.1-0.1l-0.1,0c0.2-0.2,0.1-0.1,0.2-0.2c-0.1,0.1-0.2,0.2-0.2,0.1  c0.2-0.2,0.1,0,0.2-0.2l0,0.1c0.3-0.3,0,0,0.3-0.3c0-0.1-0.1,0.1-0.1,0c-0.1,0.1-0.2,0.1-0.3,0.2c-0.2,0.1,0.5-0.5,0.2-0.2  c-0.1,0.1-0.4,0.3-0.3,0.2l0.2-0.2c0,0-0.3,0.2-0.2,0.1c0.1-0.1,0.1,0,0.1-0.1C21.3,7.6,21,7.9,21,7.9l0.2-0.1c0,0-0.2,0.1-0.3,0.1  c0.1,0,0.1-0.1,0.2-0.1c-0.1,0,0-0.1,0.1-0.2l-0.2,0.1c0,0,0.1,0,0.1,0c0.1,0-0.1,0-0.2,0.1c0,0,0.1,0,0.2-0.1c-0.2,0-0.4,0-0.2-0.1  l0.1,0c0.1,0-0.5,0-0.3,0l0,0c0.1-0.1-0.1-0.1,0.2-0.2c-0.3,0,0.1,0-0.3-0.1c0.2,0,0.3,0,0.4,0c0,0-0.3-0.1-0.3-0.1l0.2,0.1  l-0.2-0.1l0.3,0.1l-0.1,0c0,0-0.1,0-0.2,0c-0.1-0.1,0.2,0,0.3,0L21,7c0.1,0,0.1,0.1,0.2,0.1c-0.2-0.1,0.2,0.1,0,0  c0,0-0.1-0.1-0.2-0.1c0.1,0,0.1,0,0.1,0l0.1,0.1c0,0,0-0.1,0-0.1c-0.1,0-0.3-0.2-0.3-0.2l0.2,0.1c-0.1-0.1-0.1,0-0.2-0.2  c0,0,0.2,0.2,0.3,0.2l-0.1-0.1c0.1,0,0.1,0.1,0.2,0.1c-0.1-0.1,0.2,0.1,0,0l0.1,0c0,0,0-0.1,0-0.1c-0.2-0.1-0.1-0.1-0.2-0.2  c0.1,0,0.2,0.1,0.2,0.1c-0.1-0.1-0.1-0.1-0.2-0.2c0.1,0.1,0.1,0.1,0.2,0.2c0,0,0-0.1,0-0.2c0-0.1-0.1-0.1-0.1-0.1  c0,0,0.1,0.1,0.1,0.1l0,0c-0.1-0.3,0.3,0.4,0.2,0.1l0-0.2c0,0,0,0.1,0.1,0.2c-0.1-0.3,0.1,0,0-0.2c0.1,0.6,0.1-0.1,0.1,0.3l0-0.1  c0-0.1,0,0.1,0,0.1c0-0.1,0-0.1,0-0.2c0.1-0.2,0.1,0.2,0.1,0.3c0,0,0.2-0.7,0.1-0.3L22,6.8c0.1-0.3,0.1,0,0.2-0.2  c0,0-0.1,0.1-0.1,0.1c-0.1,0.2,0,0,0.1-0.1c0,0-0.1,0.1-0.1,0.2c-0.1,0.1,0.1-0.2,0.1,0c0,0,0,0,0,0.1c0.1-0.1,0,0,0.1-0.1  c0,0.1,0.1-0.1,0,0.1c0.2-0.2-0.1,0.1,0.2-0.1c-0.2,0.2-0.2,0.2,0,0.1c-0.1,0.1-0.1,0.1-0.2,0.2c0,0,0.1,0,0.2-0.1  c-0.3,0.3,0.3-0.2-0.1,0.2c0.2-0.1,0.3-0.1,0.4-0.1c-0.3,0.2-0.1,0-0.4,0.1c0.1-0.1,0.4-0.1,0.4-0.1c0,0-0.1,0.1-0.2,0.1  c0.1,0,0,0.1,0.2,0.1c0,0-0.1,0-0.1,0c0,0,0,0,0.1,0l0,0C22.9,7,23.1,7,23.2,7c-0.4,0.1-0.1,0.1-0.6,0.2c0,0,0.1,0,0.2,0  c0,0-0.1,0-0.2,0c0.1,0,0.2,0,0.2,0c-0.1,0-0.1,0-0.2,0c0.1,0,0.3,0,0.2,0c0,0-0.1,0-0.1,0c0,0,0.4,0,0.3,0.1c-0.3,0-0.1,0-0.4,0  l0.1,0l0.1,0c0,0,0.2,0,0.1,0.1l-0.1,0l0.1,0l0.1,0c0.1,0,0.4,0,0.3,0.1c0,0,0,0-0.2,0l0,0c0.1,0,0.2,0.1,0.1,0.1  c-0.1,0-0.3,0-0.4-0.1c0.2,0,0.1,0.1,0.3,0.1c-0.1,0-0.2,0-0.2-0.1l0.2,0.1c-0.1,0-0.1,0-0.2,0c0,0,0.3,0.1,0.2,0.1c0,0,0,0-0.1,0  c-0.1,0,0.1,0.1,0,0.1c-0.3-0.1-0.1-0.1-0.3-0.1c0,0.1,0.3,0.2,0.2,0.2l0,0c0.4,0.2-0.2-0.1,0,0.1c0,0-0.2-0.1-0.2-0.1  c-0.1,0,0.1,0.1,0.1,0.2L22.8,8c-0.1,0-0.1,0-0.1,0c0.1,0.1,0.1,0.1,0.2,0.2c-0.5-0.3,0.1,0.3-0.3,0c0,0,0-0.1-0.1-0.1l0,0.1  c0.1,0.1,0.1,0.1,0.2,0.2c0.1,0.1,0.1,0.2,0.1,0.2c-0.1-0.1-0.2-0.2-0.2-0.3l0.1,0.1c-0.2-0.2,0.2,0.3,0,0.1l-0.1-0.1  c0,0,0.1,0.2,0,0.1c-0.1-0.2,0-0.1-0.1-0.2c0,0,0.2,0.3,0,0.2c0-0.1,0-0.1,0-0.1c-0.2-0.2-0.1-0.1-0.2-0.2l0,0l-0.1-0.1l0,0.1  c0.2,0.5,0,0.1,0.1,0.4c-0.1-0.3-0.1-0.2-0.2-0.4c0-0.1-0.1-0.1-0.1-0.2c0.1,0.2-0.1-0.1,0,0.1c0-0.1,0,0-0.1-0.2  c0,0.1,0.1,0.1,0.1,0.2c0.1,0.2-0.2-0.3-0.1,0.1c0,0.1,0.1,0.4,0,0.5c0-0.1,0-0.3,0-0.3c0-0.1-0.1-0.1-0.1,0c0-0.1,0-0.1,0-0.2  c0,0,0,0.3,0,0.2c0-0.1,0-0.2,0-0.3c0,0.1,0,0.2,0,0.3c0-0.1,0-0.2,0-0.3c0,0.1,0,0.1,0,0.3l0,0.1c0,0,0-0.2,0-0.2  c0-0.2,0,0.1,0,0.1l0,0C22,9.1,22,8.6,22.1,8.7l0,0.3l0-0.3c0,0.1,0.1,0.2,0.1,0.3c0.1,0.1,0-0.1,0.1,0c0,0,0,0,0,0.1l0-0.1  c0,0.1,0.1,0.2,0,0.2c0.1,0.2,0-0.2,0.1,0l0,0c0-0.1-0.1-0.2-0.1-0.5l0.2,0.5L22.4,9c0,0,0,0,0.1,0.1c0-0.2,0-0.1-0.1-0.2  c0.1,0.2,0-0.1,0.2,0.2c-0.1-0.2-0.1-0.1-0.1-0.2c0.2,0.4,0-0.1,0.1,0.1c0.1,0.2,0,0.1,0.1,0.3c-0.1-0.3,0.1,0,0.1,0  C22.8,9,22.8,9,22.8,9c0,0.1,0.1,0.1,0.1,0.1c0,0,0,0.1,0.1,0.1c0,0-0.1-0.2-0.1-0.3c0-0.1,0.1,0,0-0.1C22.9,9,23,8.9,23.1,9l0,0  C23,8.8,23,8.8,23,8.8c0.1,0.1,0.1,0.2,0.2,0.3l0,0c-0.1-0.1-0.1-0.1-0.1-0.2L23.3,9c0,0-0.1-0.2,0-0.2c-0.1-0.1-0.4-0.3-0.5-0.5  c0.1,0.1,0.2,0.2,0.2,0.2c0,0-0.1-0.1,0,0l0.1,0.1c0.1,0-0.1-0.1-0.1-0.1c0.1,0.1,0.1,0.1,0.2,0.1c0,0-0.1,0,0,0c0,0,0.1,0,0.2,0.1  c-0.1-0.1-0.1-0.1-0.2-0.2c0,0,0.1,0.1,0.2,0.1c-0.1-0.1,0,0-0.1-0.2c0,0,0.1,0.1,0.1,0.1c-0.1-0.1,0-0.1-0.2-0.2l0,0c0,0,0,0,0,0  c-0.1-0.2,0.2-0.1,0.2-0.2l0.1,0c-0.1-0.1,0-0.1-0.1-0.2c0,0,0.1,0,0.2,0.1c0-0.1-0.1-0.1,0-0.1c0.1,0.1,0.1,0,0.1,0.1  c0.1,0,0.2,0,0-0.1c0.2,0.1,0.2,0,0.2,0l-0.1,0c0,0,0,0,0-0.1l0.2,0.1c0.3,0-0.4-0.3,0.1-0.3c-0.2-0.1-0.1,0-0.3,0c0,0,0.4,0,0.4,0  c0.1-0.1-0.3-0.1-0.2-0.2c-0.1,0-0.3,0-0.4-0.1c0,0,0.4,0,0.4,0c0,0,0,0-0.1,0c0,0,0.1,0,0.2,0l-0.1,0c0.1,0,0.1-0.1,0.2-0.1  c-0.1,0-0.1,0-0.2,0c0.1-0.1,0-0.1,0.1-0.2c0,0-0.2,0-0.2,0c0.1-0.1-0.2,0-0.2-0.1c0.1,0,0.3,0,0.2-0.1c0.1,0,0.2,0,0.3,0  C24.2,7.1,24.4,7,24.4,6.9z M19.6,8.6C19.6,8.6,19.6,8.6,19.6,8.6C19.7,8.5,19.7,8.5,19.6,8.6L19.6,8.6C19.7,8.6,19.7,8.6,19.6,8.6z   M20.9,7.8C20.9,7.8,20.9,7.8,20.9,7.8C20.9,7.8,20.9,7.8,20.9,7.8L20.9,7.8z M20.8,7.8C20.8,7.8,20.8,7.8,20.8,7.8  c-0.1,0.1-0.1,0.1-0.1,0.1C20.8,7.8,20.8,7.8,20.8,7.8z M22.5,13.3l-0.2,0.1C22.4,13.3,22.4,13.3,22.5,13.3c-0.2-0.1-0.4,0.1-0.5,0  c0.1-0.1-0.1-0.2,0.1-0.3c0,0.3,0.2-0.1,0.3,0.1c0,0,0-0.1,0-0.2c0,0,0.1,0,0.1,0c0.1-0.3-0.3-0.1-0.3-0.3c0.1,0,0.2-0.1,0.2-0.2  c0,0.1-0.2,0.1-0.3,0c0.1-0.2-0.1-0.2-0.1-0.2l0,0.1c-0.1,0-0.1-0.1-0.2-0.2c0.1,0,0.1,0.1,0.1,0c-0.3,0,0.1-0.3-0.1-0.5  c0.1-0.1,0.2-0.1,0.3-0.2c-0.2-0.1,0.1-0.3-0.1-0.4c-0.1,0.1-0.1,0.1-0.3,0.1l0.3,0.3l-0.3-0.1c0,0.1,0.2,0.1,0.2,0.2  c-0.2,0-0.1,0-0.2,0.1c0.2-0.2-0.3-0.2-0.2-0.4l0.4-0.2c0.1-0.3-0.4-0.3-0.5-0.6l0,0.1c-0.2,0.1-0.1-0.2-0.2-0.2  c0.1-0.1,0.1-0.2,0.2-0.2c-0.1,0.1-0.1-0.2-0.4,0l0.1-0.2c-0.1-0.3-0.5,0-0.6-0.2c0.2-0.1,0.2-0.2,0.4-0.2c-0.1-0.1-0.1-0.1-0.2-0.1  c0-0.1-0.3,0-0.2-0.2c-0.1,0-0.2,0.1-0.2,0c0,0,0.1-0.1,0.1-0.1c-0.1,0-0.2,0-0.2,0.1c0.1-0.5-0.5-0.4-0.4-0.9  c-0.2-0.1-0.4-0.2-0.5-0.2c0,0,0-0.1,0.1,0c-0.1-0.2-0.3,0.3-0.5,0c0-0.3,0.2,0,0.2-0.2c0.2-0.4-0.3-0.1-0.3-0.4l0.1,0  c0-0.2-0.4,0-0.5-0.1c0,0,0,0,0-0.1c-0.2,0.2-0.5,0.2-0.7,0.1c0.1-0.2,0.1-0.1,0.1-0.3c-0.1,0-0.1,0.3-0.3,0.3  c0-0.1-0.1-0.3-0.1-0.4l0.2,0c0-0.3-0.2-0.1-0.3-0.1l0-0.1c-0.3,0-0.3,0.3-0.6,0.2l0,0.1c-0.2,0.3-0.1-0.2-0.3,0l0-0.3  c-0.1,0.1-0.4,0.2-0.6,0.3c0.1-0.2,0.3-0.3,0.5-0.4c-0.1,0-0.3,0-0.4,0.1c0,0,0.1-0.1,0.1,0c-0.2,0.2-0.3,0.3-0.5,0.3  c0.1-0.6-0.5-0.2-0.7-0.6c-0.4,0.2-0.7,0-1.2,0.1c0.2,0.4-0.1,0,0,0.5c-0.1,0-0.1,0-0.1,0c0,0,0,0,0,0l0,0l-0.3-0.2  c-0.1-0.1,0.1-0.1,0-0.2c-0.2,0-0.1-0.2-0.3-0.2c0.1,0.2,0,0.2-0.2,0.2l0.2,0.2c-0.2,0.3-0.4-0.3-0.6,0l0-0.2  c-0.1,0.1-0.6,0.2-0.6,0.6c0,0-0.1-0.1-0.1-0.2c-0.4,0.1-0.6,0.7-0.9,0.7l0-0.1c0,0.1,0,0.2-0.1,0.2c0,0,0-0.1-0.1-0.1  c0,0.1,0,0.3-0.2,0.3l0-0.1C9.6,8.3,9.7,8.8,9.5,9C9.3,8.8,9,8.9,8.9,9l0,0c-0.3,0.3-0.3,0.7-0.4,1.1c-0.4,0-0.6,0.6-0.9,0.9  c0.1,0,0.2,0.1,0.2,0.2c-0.1,0.1,0.1,0.3-0.2,0.2l0,0c-0.3-0.1-0.3,0.1-0.4,0.3l0.4,0.2c-0.7,0.2-0.1,1-0.7,1.1  C7,12.9,6.9,13.1,7,13.2l-0.2,0c-0.1,0.3-0.2,0.4-0.1,0.7l-0.1-0.1c0,0.2,0.6,0.3,0.6,0.4l-0.3,0c0,0.3-0.3,0.7,0,1  c0,0-0.1,0-0.2-0.1c0,0.2-0.1,0.6,0.3,0.5c-0.3,0,0,0.3,0.2,0.5l-0.2,0c0.3,0.1,0.4,0.1,0.5,0.2c0,0-0.1,0.1-0.1,0  c0,0.1,0.2,0,0.2,0.2l-0.1,0c0,0.2,0.1,0.1,0.3,0.2c0.1,0.1,0.1,0.3-0.1,0.4c0.1,0,0.3,0,0.3,0.1c-0.1,0-0.1,0-0.1,0  c0,0.3,0.4,0.3,0.3,0.5c-0.1,0-0.1,0.1-0.1,0.1c-0.1-0.2-0.2-0.4-0.1-0.3c-0.2,0.1-0.1,0.3-0.4,0.2c0.2,0.1,0.6,0.2,0.6,0.3  c0,0,0,0,0,0.1l0,0c0,0,0,0.1,0.1,0.1c0,0.1,0,0.1,0,0.2c-0.1,0.1,0,0.2,0.1,0.3c0.2-0.1,0.2,0,0.3-0.2c0,0,0,0-0.1,0c0,0,0,0,0,0  l0,0c0,0-0.1-0.1-0.1-0.2c0.1,0,0.2,0,0.2,0.2c0.1,0,0.3-0.1,0.3-0.1c-0.2,0.3-0.2,0.5-0.3,0.7c0.3,0.1,0.4,0.5,0.9,0.3  c0.1,0,0,0.1-0.1,0.2c-0.1,0-0.1,0-0.1,0c0.2,0,0.3,0.3,0.5,0.1c0,0.2-0.3,0.1,0,0.3l-0.1,0c0,0.3,0.3,0.3,0.6,0.4  c0.3,0,0.5,0,0.6,0.4c0-0.1,0-0.1,0-0.1c0.4,0.6,1.2,0.5,1.6,1c0.1,0.1,0.2,0,0.4-0.1l0,0.2l0.3-0.2c0.3-0.1,0.3,0.7,0.7,0.4l0-0.2  c0.1,0,0.4,0,0.3,0.1c0,0,0.1-0.2,0.1-0.1l0,0.1c0,0,0.3-0.2,0.3-0.2c0.2,0.1-0.1,0.5,0.3,0.5c0.1,0,0.4-0.3,0.3-0.4  c0,0-0.1-0.1-0.1-0.2l0.1-0.1c0-0.1,0-0.3,0-0.4c0,0,0,0,0,0l0-0.3L14.6,21c0,0,0,0,0,0c0-0.2-0.1-0.3-0.2-0.4l-0.2,0.2l0-0.2l0.1,0  c-0.1-0.2-0.1,0-0.2,0.1c0-0.1,0-0.2-0.1-0.2l-0.2,0.3c0-0.1,0.1-0.3,0-0.3c-0.1,0.1,0,0.3-0.1,0.4c-0.1-0.2,0-0.3-0.1-0.2  c0-0.1,0-0.1,0.1-0.2c-0.1,0.1-0.2,0-0.3,0.2c0-0.2-0.3,0-0.2-0.3c0,0.1-0.2,0.2-0.3,0.2c0.2-0.4-0.3-0.1-0.1-0.5  c-0.2,0.3-0.4,0-0.6,0.2c0,0,0.1-0.1,0.1,0c-0.1-0.1-0.1-0.2-0.1-0.3c-0.1,0.3-0.3,0.3-0.4,0.4c0-0.3,0.2-0.3,0.3-0.5  c-0.1,0.2-0.3,0.1-0.3,0.3c0-0.2,0-0.1,0-0.3c-0.2,0.3-0.1,0-0.3,0.2c0-0.2,0.1-0.3,0-0.3c0-0.1,0.2-0.2,0.2-0.2  c-0.1-0.1-0.2,0.2-0.3,0.3c-0.2,0,0-0.2,0.1-0.4c-0.1,0-0.3,0.2-0.4,0.1c0,0,0-0.1,0.1-0.1c-0.2,0.1-0.3-0.2-0.6-0.1c0,0,0,0,0-0.1  c-0.1,0.1-0.2,0.2-0.2,0.3c-0.1,0-0.2,0-0.1-0.1c0,0,0.1,0,0.1,0l-0.1,0c0.1-0.2,0.1,0,0.3-0.1c-0.2,0-0.4,0-0.5-0.1  c0.2-0.2,0.2,0.1,0.3-0.2l0.1,0.2c0.2-0.4,0.1,0.1,0.3-0.3c-0.1-0.2-0.3-0.1-0.4-0.3c-0.1,0.1-0.1,0.2-0.3,0.2  c-0.4-0.1,0.3-0.6-0.1-0.5c-0.2,0.1-0.4,0.2-0.4,0l0.3-0.1c-0.1-0.2-0.4,0.2-0.4-0.1c0.1,0,0.2,0.1,0.2,0c0.1-0.2-0.2,0-0.3-0.1  l0.2-0.2c-0.1-0.2-0.4-0.3-0.6-0.5c0.1,0,0.2,0,0.2-0.1c-0.3-0.2-0.3-0.6-0.2-0.9l-0.2,0c0,0,0.1-0.1,0.1-0.1c0.1-0.1-0.1,0-0.2,0  c0-0.1,0.1-0.1,0.2-0.1c-0.2-0.1-0.5-0.5-0.3-0.7l0.1,0c0.1-0.2-0.5-0.1-0.3-0.3l0,0c0.1-0.4-0.2-0.8,0.2-1.1  c-0.3-0.1,0.2-0.3-0.3-0.4c0.2-0.2,0.3-0.1,0.5-0.4c0-0.1-0.2-0.2-0.3-0.3l0.2,0L8.5,13l0.3,0l0-0.1c0,0-0.1,0-0.2,0  c-0.1-0.2,0.2-0.3,0.4-0.2l-0.1-0.4c0.1,0,0.1,0.1,0.1,0.2c-0.2-0.2,0.2,0.1,0.1-0.2c-0.1,0-0.1-0.1-0.2-0.1c0.2,0,0.2-0.2,0.2-0.3  L9.3,12c0.1-0.2,0.2-0.5,0.3-0.7c-0.1,0-0.3-0.1-0.3-0.2l0.2,0.1c-0.1-0.1-0.1,0-0.2-0.2c0.1-0.1,0.3,0.1,0.3,0.2l0-0.1  c0.1,0,0.1,0.1,0.1,0.1c-0.1-0.1,0.3,0,0.2-0.2l0.1,0c0.2-0.2,0.2-0.3,0.3-0.5c-0.2-0.1-0.1-0.2-0.1-0.4c0.2-0.1,0.4-0.1,0.6-0.2  c0-0.2-0.1-0.2-0.1-0.3c0.1,0.1,0.3,0,0.3,0.2c0.2-0.2,0.2-0.2,0.4-0.5c-0.1,0-0.1-0.1-0.1-0.1c0-0.1,0.2,0,0.2,0.1l0,0  c0.2-0.5,0.9,0.1,1-0.3l0,0l0.2-0.3c0.1,0,0,0.2,0.1,0.2c0.2-0.4,0.5-0.1,0.6-0.4c0.3,0.5,0.7-0.2,1,0.2l0-0.1  c0.1-0.1,0.1,0.1,0.1,0.1c0-0.1-0.1-0.1,0-0.2c0.6-0.2,1.2,0.2,1.7,0.5c0.2,0.1,0.3-0.6,0.5-0.3l-0.1,0.2c0.5-0.2,0.8,0.3,1.3,0.3  c0,0-0.1,0.1-0.1,0.1c0,0.2,0.3,0.2,0.3,0c0,0-0.1,0.1-0.1,0.2c0,0.1,0.3-0.1,0.3,0.1c0,0-0.1,0-0.1,0c0.1,0,0.2,0.2,0.3,0  c0.1,0.2,0.3,0.1,0.3,0.3c0.2-0.1,0.1,0.3,0.4,0c-0.2,0.2,0,0.4,0.2,0.3c-0.1,0,0,0.1-0.1,0.2c0.1,0.1,0.2,0.1,0.3,0  c-0.2,0.4,0.5,0.1,0.2,0.5c0.4,0.1,0.6,0.4,0.8,0.6c-0.3,0.1-0.2-0.3-0.5-0.1c0.3,0.2,0.6,0.2,0.6,0.5c0,0.1-0.2,0-0.2,0  c0.2,0.2,0.2,0.5,0.4,0.7c0,0-0.1,0-0.1,0c0,0,0,0.1,0.1,0.1l-0.1,0c0.2-0.1,0.5,0.1,0.6,0.1c-0.4,0,0,0.3-0.6,0.3  c0,0,0.1,0.1,0.2,0c0,0.1-0.1,0.1-0.2,0.1c0.1,0.2,0.3,0.1,0.3,0.2c-0.1,0-0.1,0-0.2,0c0.2,0.1,0.3,0.1,0.3,0.3c0,0-0.1,0-0.1,0  c0.1,0.2,0.4,0.4,0.3,0.7c-0.3-0.1-0.1,0.1-0.4,0.1l0.1,0.1l0.1-0.1c0,0.1,0.2,0.3,0.1,0.4l-0.1-0.1l0,0.2l0.1-0.1  c0.1,0.1,0.4,0,0.3,0.2c0,0,0,0.1-0.2,0.2l0,0c0.1,0.1,0.2,0.2,0.1,0.2c-0.1,0-0.3-0.1-0.4-0.1c0.2,0.1,0,0.3,0.2,0.4  c-0.1,0-0.2-0.1-0.2-0.1l0.2,0.1c-0.1,0-0.1,0-0.2,0c-0.1,0.2,0.4,0,0.2,0.2c0,0,0,0-0.1-0.1c-0.1,0.2,0,0.4-0.2,0.6  c-0.3,0,0-0.2-0.3-0.2c0,0.3,0.1,0.7-0.1,0.9l0.1,0c0.3,0.2-0.3,0.1-0.2,0.3c0,0-0.2-0.1-0.1-0.1c-0.2,0.1-0.1,0.4-0.2,0.7L20,18.2  c-0.1,0-0.2,0.2-0.3,0.3c0.1,0.1,0,0.1,0.1,0.2c-0.7-0.1-0.2,0.8-0.9,0.7c0,0,0-0.1,0-0.1l-0.1,0.3c0.1,0.1,0.1,0.1,0.2,0.1  c0,0.1,0,0.2,0,0.3c0-0.2-0.2-0.2-0.3-0.3c0,0,0.1,0.1,0.1,0.1C18.5,19.6,19,20,18.7,20l0-0.1c0,0.1,0,0.2-0.1,0.3  c-0.1-0.1,0-0.1-0.1-0.3c-0.1,0.1,0,0.5-0.2,0.3c0-0.1,0.1-0.1,0.1-0.2c-0.2-0.1-0.2-0.1-0.3-0.1l0,0l-0.2,0l0.1,0  c0.1,0.5-0.2,0.2-0.2,0.6c0-0.4-0.1-0.2-0.1-0.4c-0.1,0-0.2-0.1-0.2-0.1c0,0.2-0.2-0.1-0.2,0.2c0-0.1-0.1,0-0.1-0.1  c-0.1,0.1,0.1,0.1,0.1,0.2c-0.1,0.3-0.5-0.1-0.6,0.3c-0.2,0.2-0.2,0.4-0.3,0.6c-0.1-0.1,0-0.3,0-0.3c-0.1-0.1-0.2,0-0.3,0.1  c0-0.1,0-0.1-0.1-0.2c-0.1,0,0,0.3-0.1,0.2c0-0.1,0-0.2,0-0.3c-0.1,0.1-0.2,0.2-0.3,0.3c0-0.1,0-0.2,0.1-0.3  c-0.1,0.1-0.3,0.2-0.3,0.4l0.1,0.1c0,0,0-0.2,0-0.2c0.1-0.2,0.2,0,0.2,0.1l-0.1,0.1c0.1,0.4,0.3-0.1,0.5-0.1l0,0.3l0.1-0.3  c0,0.1,0.1,0.2,0,0.3c0.1,0.1,0.1-0.1,0.2,0c0,0,0,0,0,0.1l0.1-0.1c0,0.1,0.1,0.2,0,0.2c0.3,0.1,0.3-0.3,0.4-0.1l0,0  c0.2-0.2,0-0.2,0.1-0.6l0.3,0.5L17,21.2c0,0,0.1,0,0.1,0.1c0-0.2-0.1-0.1,0-0.2c0.2,0.2,0.3-0.2,0.5,0.1c0-0.2-0.2-0.1-0.1-0.2  c0.2,0.3,0.1-0.1,0.3,0c0.1,0.2-0.1,0.2,0.1,0.3c-0.1-0.3,0.3,0,0.3-0.2c0-0.1,0-0.1,0-0.2c0,0.1,0,0.1,0,0.2c0,0,0,0.1,0.1,0.1  c0,0-0.1-0.2-0.1-0.3c0-0.1,0.2-0.1,0.3-0.2c0,0.1,0.4-0.1,0.6-0.1l0,0c-0.1-0.2,0-0.3,0.1-0.4c0.1,0.1,0.1,0.2,0.1,0.3l0.1-0.1  c0-0.1,0-0.1,0-0.2l0.1,0.2c0.1-0.1,0.1-0.4,0.3-0.5c-0.1-0.1-0.5-0.3-0.4-0.5c0.1,0.1,0.2,0.2,0.2,0.3c0,0,0-0.1,0-0.1l0.1,0.2  c0.1,0-0.1-0.1,0-0.2c0.1,0.1,0.1,0,0.2,0.1c0,0-0.1,0-0.1,0.1c0.1,0,0.2-0.1,0.3,0c-0.1-0.1-0.1-0.1-0.1-0.2c0.1-0.1,0.2,0.1,0.3,0  c0-0.1,0.1-0.1-0.1-0.3c0,0,0.1,0,0.2,0c0-0.1,0.2-0.3,0-0.4l0,0c0,0,0,0,0,0c0-0.3,0.4-0.4,0.5-0.7l0.1,0c0-0.2,0.1-0.4,0-0.5  c0,0,0.2,0,0.2,0c0-0.1-0.1-0.2,0.1-0.3c0.1,0.2,0.1,0,0,0.2c0.1-0.1,0.2-0.1,0.1-0.4c0.2,0.1,0.3,0,0.2-0.1L21.6,17  c0-0.1,0-0.2,0.1-0.2l0.2,0.1c0.4-0.3-0.3-0.7,0.2-0.9c-0.2-0.1-0.2,0.2-0.3,0c0.1-0.1,0.4-0.3,0.4-0.3c0.2-0.2-0.3-0.3-0.2-0.5  c-0.1,0-0.3,0-0.4-0.1c0-0.1,0.4-0.2,0.4-0.1c0,0,0,0.1-0.1,0.1c0,0.1,0.1,0.1,0.2,0.1l-0.1,0c0.1-0.1,0.1-0.3,0.2-0.2  c-0.1-0.1-0.1-0.1-0.2,0c0.1-0.2,0-0.3,0.1-0.5c0,0-0.2,0.1-0.2,0c0.1-0.3-0.2-0.1-0.2-0.3c0.1-0.1,0.3,0,0.2-0.2  c0.1-0.1,0.2-0.1,0.3,0C22.2,13.7,22.5,13.5,22.5,13.3l0.1,0.2C22.5,13.4,22.5,13.4,22.5,13.3z M7.8,18.5c-0.1,0,0-0.1,0-0.1  C7.8,18.4,7.9,18.5,7.8,18.5l0.1,0C7.9,18.5,7.8,18.5,7.8,18.5z M8.9,17.5C8.9,17.5,8.9,17.5,8.9,17.5C8.9,17.5,8.9,17.5,8.9,17.5  L8.9,17.5z M8.8,17.2c0,0,0,0.1,0,0.1c-0.1,0-0.1,0.1-0.1,0C8.7,17.4,8.7,17.3,8.8,17.2z M28.9,9c0.2-0.2,0-0.3-0.1-0.4  c0.1,0,0.1-0.1,0.2-0.2L28.6,8c0.1-0.1,0.3,0.2,0.3-0.1c-0.2-0.2-0.3,0.2-0.4-0.1c0.1-0.2,0.3-0.2,0.1-0.4c0.1,0,0.1,0,0.2,0.1  c-0.1-0.2-0.1-0.5-0.3-0.6c0.2-0.2-0.2-0.7,0.1-0.7c-0.1,0-0.4-0.3-0.4-0.5c0.5,0.2-0.2-0.7,0.2-0.8c-0.4-0.1-0.6-0.8-1-1.1  c0,0,0.1,0,0.1,0.1c-0.1-0.2-0.1-0.4-0.1-0.6c-0.3,0.1-0.6-0.1-0.8-0.2c0-0.4,0.4-0.1,0.5-0.3c-0.2,0.2-0.6-0.3-0.6,0  c-0.1-0.3-0.1-0.2,0-0.5c-0.3,0.2-0.2-0.1-0.5-0.1c-0.2-0.4,0.1-0.3-0.3-0.5c-0.1-0.2,0.3-0.1,0.3-0.1c-0.3-0.3-0.3,0.1-0.5,0.2  c-0.4-0.2-0.1-0.3-0.1-0.5c-0.3-0.1-0.6,0-0.8-0.1c0,0,0-0.1,0-0.1c-0.4,0.1-0.9-0.4-1.3-0.2c0,0,0-0.1,0-0.1C23,1,23,1.1,23,1.2  c-0.2,0-0.3,0.1-0.4-0.1c0.1,0,0.1,0,0.2-0.1l-0.2,0c-0.1-0.3,0.3,0,0.3-0.2c-0.4,0-0.8,0.1-1.1,0c0-0.3,0.6,0,0.3-0.3l0.4,0.2  c-0.2-0.5,0.3,0.1,0.1-0.4c-0.6-0.2-0.7,0-1.2-0.2c-0.1,0.1,0,0.2-0.1,0.3c-0.8,0.2-0.5-0.7-1.1-0.4c-0.2,0.2-0.2,0.5-0.6,0.3  l0.1-0.3c-0.5-0.1-0.3,0.4-0.8,0.2c0.1-0.1,0.4-0.1,0.3-0.1c-0.3-0.2-0.3,0.1-0.5,0.1l-0.1-0.3c-0.5,0-1.1,0.2-1.7,0.3  c0-0.1,0.1-0.2,0-0.2c-0.8,0.1-1.6,0-2.3-0.2l-0.3,0.2c-0.1,0-0.1-0.1-0.1-0.1c-0.3-0.1,0,0.1-0.1,0.2c-0.2,0-0.2-0.1-0.1-0.2  c-0.5,0.2-1.4,0.4-2,0.2l0.1-0.1c-0.4-0.1-0.5,0.5-0.8,0.2l0.1,0c-0.9-0.1-1.9,0.1-2.6-0.2c-0.1,0.3-0.9-0.1-1,0.4  C7.2,0.5,7.4,0.4,6.6,0.4c-0.2,0-0.2,0.3-0.5,0.5L6,0.6L5.8,1L5.5,0.8L5.3,0.9c0.1,0,0.2,0,0.2,0.1c-0.3,0.2-0.9,0.2-1,0.1  c0,0-0.2,0.1-0.4,0.3C4,1.6,3.9,1.8,3.9,1.8c0-0.1,0.1-0.2,0.1-0.3C3.7,1.9,3.8,1.3,3.5,1.8c0.1,0,0.1,0.1,0.1,0.2  C3.4,1.9,3,2.3,2.7,2.6L2.7,2.4C2.1,2.9,1.7,3.6,1.3,4.2c0.2-0.2,0.4,0,0.3,0.2l-0.3,0c0.1,0.2,0.2-0.2,0.2,0.2  c-0.2,0.2-0.3,0-0.3-0.1L1.2,4.8c-0.1,0-0.1-0.1-0.1-0.2c0.1,0.2-0.5,0.5-0.3,0.8l-0.1,0C0.4,6.1,0.4,6.5,0.3,7.1  c0.2,0,0.1,0.3,0.3,0.5C0.4,7.9,0.2,8.4,0.2,8.9C0.3,9.3,0.4,9,0.5,9.2c-0.2,0-0.2,0.5-0.3,0.3c0,0.6,0,0.8,0.2,1.5  c0.1-0.1,0.1-0.2,0.2-0.1c0,0.1-0.1,0.3-0.2,0.3l0,0c0.3,0.8-0.6,1.9-0.1,2.6l0,0l0.2,0.7c0,0.3-0.1-0.2-0.3,0  c0.3,0.7,0,1.2,0.2,1.8c-0.6,0.5,0,1.7-0.3,2.3l0.1,0c0.1,0.2-0.1,0.2-0.1,0.3c0.1,0,0.1-0.2,0.2-0.1c0.1,0.7,0,1.4,0,2.2  c0,0.8,0,1.6,0.2,2.4c0.2,0.6,0.7,0.1,0.7,0.9l-0.3-0.1c0.7,1,1.3,2.2,2.4,2.8c-0.1,0-0.1,0.1-0.2,0c0.1,0.3,0.7,0.6,0.8,0.4  c0.1,0.1,0,0.1,0,0.3c0.2,0.2,0.7,0.1,0.7,0.3c0,0-0.1,0-0.1,0c0.2,0,0.7,0.4,0.6,0.1c0.4,0.3,0.8,0.2,1.1,0.4  c0.3-0.2,0.7,0.3,0.8,0c-0.1,0.3,0.7,0.4,1,0.3C7.8,28.8,8.1,28.9,8,29c0.3,0,0.6,0,0.5-0.2c0.5,0.4,1.1-0.3,1.4,0.2  c0.8-0.2,1.6-0.3,2.4-0.3c0,0.3-0.8,0-0.8,0.4c0.7-0.1,1.1-0.4,1.8-0.3c0.2,0-0.1,0.1-0.2,0.2c0.5-0.1,1,0,1.4,0l0.3,0c0,0,0,0,0,0  l0.5,0l0-0.4c0.1-0.1,0.3-0.2,0.3-0.2c-0.2,0.4,0.6,0.1,0.3,0.7c0.1,0,0.2-0.1,0.2-0.2c0.1,0,0.2,0.1,0,0.2c0.4-0.1,0.3-0.2,0.7-0.2  c0,0.1-0.1,0.1-0.1,0.2c0.2-0.1,0.4-0.3,0.8-0.2c0,0,0,0.1-0.1,0.1c0.6,0,1-0.4,1.6-0.3c-0.2,0.3,0.2,0.1,0.3,0.4l0.4-0.1l-0.1-0.1  c0.3,0,0.6-0.2,0.8-0.1l-0.2,0.1l0.6-0.1l-0.3-0.1c0.3-0.2-0.1-0.3,0.4-0.3c-0.1,0,0.3,0,0.5,0.1l0,0c0.1-0.1,0.3-0.2,0.5-0.2  c0.1,0.1,0,0.3,0.1,0.4c0.1-0.2,0.7-0.2,0.9-0.5c0,0.1,0,0.2,0,0.2l0.1-0.2c0.2,0,0.2,0,0.2,0.2c0.4-0.1-0.2-0.3,0.3-0.3  c0,0,0,0-0.1,0.1c0.5-0.1,0.9-0.5,1.4-0.6c0.3,0.2-0.3,0.3-0.1,0.4c0.6-0.4,1.1-1.1,1.6-1.5L26,26.2c-0.2-0.3,0.5-0.2,0.6-0.6  c0,0.1,0.1,0.2,0.1,0.2c0.4-0.3,0.5-0.8,0.8-1.5l0,0.1c0.2-0.2,0.4-0.6,0.5-0.9c-0.1-0.1,0-0.3-0.2-0.2c0.9-0.7,0.1-1.7,0.6-2.4  c0,0.1,0.1,0.2,0.1,0.2l-0.1-0.7c-0.2,0-0.1,0.1-0.3,0.2c-0.1-0.1-0.2-0.3-0.2-0.4c0.1,0.3,0.3,0,0.4-0.1c-0.1,0-0.1,0-0.2,0  c0.3-0.3-0.3-0.1-0.1-0.5l0.1,0c0-0.2-0.1-0.3-0.1-0.5c0.2-0.1,0.1,0.2,0.2,0.2c0-0.3-0.4-0.5-0.2-0.8c0.1,0.1,0.1,0.3,0.1,0.4  c0.2-0.3,0.2-0.3,0.2-0.5l0,0l0.1-0.4l-0.1,0.1c-0.5-0.3-0.1-0.7-0.4-1.1c0.3,0.4,0.2,0.1,0.4,0.1c0.1-0.1,0.1-0.3,0.2-0.2  c-0.2-0.2,0.1-0.4-0.1-0.7c0.1,0,0-0.2,0.2-0.2c-0.1-0.3-0.1,0.1-0.2,0c-0.3-0.4,0.3-1,0-1.6c-0.1-0.5-0.4-0.6-0.5-1.1  c0.1-0.2,0.3,0.1,0.3,0.1c0.1-0.3,0.1-0.5,0-0.7c0.1,0,0.1,0,0.2-0.1c0-0.2-0.3-0.1-0.2-0.4c0.1,0,0.2,0.1,0.3,0.2  c-0.1-0.2-0.2-0.5-0.3-0.7c0.1-0.1,0.2,0.1,0.3,0.2c-0.1-0.3-0.1-0.7-0.3-0.8l-0.1,0.2c0-0.1,0.2-0.1,0.2,0c0.2,0.2-0.1,0.3-0.1,0.4  l0-0.2c-0.4,0.2,0.1,0.7,0,1.1L28,12.3l0.3,0.4c-0.1,0.1-0.3,0.1-0.3,0c-0.2,0.3,0.1,0.2-0.1,0.4c0,0,0,0-0.1,0l0.1,0.2  c-0.1,0-0.2,0-0.2-0.1c-0.2,0.4,0.2,0.7,0,0.9l0,0c0.1,0.6,0.2,0.1,0.5,0.5l-0.6,0.3l0.2,0.1c0,0.1,0,0.2-0.1,0.2  c0.2,0.2,0.1,0,0.2,0.1c-0.2,0.3,0.1,0.8-0.3,0.9c0.2,0.1,0.1-0.3,0.3,0c-0.4,0.1,0.1,0.4-0.1,0.7c-0.2-0.1-0.1-0.3-0.3-0.1  c0.3,0.2-0.1,0.5,0,0.8c0.1,0,0.1,0.1,0.1,0.1c-0.1,0-0.1-0.1-0.1-0.1c0,0-0.1,0-0.1,0c0,0.1,0.2,0.1,0.3,0.1c0.1,0.2,0,0.5,0.1,0.8  c-0.1,0-0.2,0.7-0.3,1.1l0,0c0.3,0.1,0.2,0.5,0.2,0.7c-0.2,0-0.2-0.1-0.3-0.2l0,0.3c0.1,0.1,0.1,0.1,0.1,0.3l-0.2-0.1  c0,0.3,0.2,0.7,0,1.1c0.2,0.1,0.6-0.3,0.6,0.2c-0.1,0-0.3,0-0.3-0.1c0,0,0.1,0.2,0,0.2l-0.1-0.2c-0.1,0.2,0.1,0.1,0.1,0.3  c-0.1,0-0.1,0.1-0.2,0c0,0,0.1-0.1,0-0.2c-0.1,0.2-0.2,0.4-0.3,0.4c0.1,0,0.2,0,0.2,0.2c-0.1,0.3-0.2,0.1-0.3,0.2  c0.1,0.1-0.1,0.3,0.1,0.3C27.1,23,27,23,27,23c0,0.2-0.3,0.7,0,0.6l0,0l0,0c0,0.6-0.7,1-0.9,1.4L26,25c-0.1,0.3-0.5,0.6-0.5,0.8  c-0.1,0.1-0.3,0.1-0.3,0c-0.2,0.2-0.1,0.3-0.5,0.4c0.1-0.3-0.1,0,0.1-0.2c-0.3,0.1-0.4,0.1-0.6,0.4c0-0.2-0.3-0.1-0.4,0l0.3,0  c-0.1,0.1-0.3,0.2-0.4,0.2l0-0.3c-0.7,0-0.9,0.9-1.5,0.5c-0.1,0.2,0.4,0,0.3,0.3c-0.3,0-0.7-0.3-0.8-0.2c-0.4-0.1-0.3,0.4-0.8,0.4  c0.1,0.1,0.1,0.3-0.2,0.4c-0.3,0-0.4-0.3-0.2-0.4c0.1,0,0.1,0,0.1,0c0.1,0,0.2-0.1,0.1-0.2l0,0.1c-0.2-0.1-0.6,0-0.5-0.2  c-0.2,0.1-0.1,0.2,0.1,0.2c-0.4-0.1-0.6,0-1.1-0.1c0.1,0,0.1,0.2,0.1,0.2c-0.6-0.1-0.3,0.2-0.7,0.2c-0.2-0.1,0.1-0.3-0.3-0.2  c-0.3-0.1-0.1-0.2,0-0.3c-0.4,0.2-0.7-0.1-0.9-0.1l0.2-0.1c-0.1,0-0.2,0-0.3,0l0.1,0.2c-0.1,0-0.2,0-0.2-0.1  c-0.1,0.1,0.1,0.3-0.1,0.5c-0.2-0.1-0.5,0.1-0.5-0.1c0.5,0.1-0.1-0.2,0.4-0.3c-0.1,0-0.2,0-0.3,0c0,0,0,0,0-0.1  c-0.5-0.2-0.2,0.3-0.7,0.3c0.1-0.1-0.1-0.3-0.2-0.2c0.2,0,0.1,0.2-0.1,0.3c-0.3-0.1-0.3,0.1-0.5,0.1l0.2,0c-0.1,0.1-0.2,0.1-0.4,0.2  c0-0.1,0.2-0.1,0.1-0.1c-0.1,0.1-0.1,0.1-0.2,0.1l-0.1,0c-0.2-0.1-0.4-0.2-0.5-0.1c-0.2-0.1,0-0.3-0.2-0.3c-0.4,0.2-0.4-0.2-0.8-0.1  c0.1,0.2,0.1,0.1-0.2,0.3l0.7-0.1L13,27.6c0.2,0,0.4-0.1,0.5-0.1c-0.2,0.1-0.2,0.1-0.1,0.2c-0.3-0.3-0.6,0.1-0.9,0l0-0.4  c-0.5-0.2-0.9,0.2-1.5,0.1l0.2,0.1c-0.1,0.2-0.4,0-0.6,0.1c0-0.1-0.1-0.2-0.2-0.3c0,0.1-0.5,0-0.5,0.3l-0.3-0.2  c-0.5-0.1-0.6,0.4-1.1,0.3c0.2-0.2-0.1-0.3,0.3-0.4c-0.2,0-0.3,0-0.3,0.1c-0.1-0.1-0.4,0.2-0.6,0C8,27.4,8,27.6,7.8,27.5  c0,0,0-0.1,0-0.1c0,0.1-0.3,0.1-0.2,0.2c-0.4-0.5-1.3-0.3-1.6-0.8c-0.3-0.1-0.7-0.2-1-0.3c0,0,0-0.1,0.1,0c-0.3-0.3-0.4,0.3-0.8-0.1  c-0.1-0.3,0.3,0,0.2-0.1c0.2-0.4-0.5-0.3-0.6-0.7l0.1,0c-0.1-0.3-0.5-0.2-0.8-0.6c0,0,0,0,0.1,0c-0.4,0-0.7-0.4-1-0.7  c0.2,0,0.2,0.1,0.3-0.1c-0.1-0.1-0.3,0.2-0.5-0.1c0-0.2,0-0.4,0.2-0.5l0.2,0.3c0.2-0.3-0.2-0.4-0.2-0.5l0.1,0  C2.3,22.9,2,23,1.9,22.4l-0.1,0.1c-0.4-0.2,0.1-0.3-0.2-0.5l0.3-0.1c-0.1-0.2-0.4-0.6-0.5-1c0.2,0.2,0.4,0.6,0.6,0.8  c0-0.2-0.1-0.6-0.3-0.7c0,0.1,0.1,0.2,0.1,0.2c-0.3-0.2-0.4-0.5-0.4-0.9c0.6,0,0.1-1.1,0.6-1.4c-0.2-0.7,0.1-1.4,0-2.2  c-0.4,0.3,0-0.2-0.5-0.2c0-0.2,0-0.3,0-0.3c0,0,0,0,0,0l0,0l0.3-0.6c0.1-0.1,0.1,0.2,0.2,0.2c0-0.4,0.2-0.2,0.3-0.5  c-0.2,0.1-0.2-0.1-0.2-0.4l-0.2,0.3c-0.2-0.6,0.4-0.5,0.1-1.1l0.1,0.2c-0.1-0.3,0-1.1-0.4-1.4c0.1-0.1,0.2-0.1,0.2,0  c0.1-0.7-0.4-1.6-0.2-2.2L2,10.8c0-0.1-0.2-0.2-0.1-0.4c0,0,0.1,0.1,0.1,0c0-0.1-0.2-0.4-0.1-0.5L2,10c0.2-0.7-0.3-1.1-0.3-1.7  c0.3,0,0.5-0.5,0.6-0.7l0,0c0.2-0.7,0-1.3,0.2-2C3,5.4,3.3,4.4,3.9,4.1c-0.1,0-0.2-0.2-0.1-0.3C4,3.7,4,3.3,4.2,3.6l0,0  c0.3,0.1,0.5-0.1,0.7-0.3L4.6,3c0.4,0,0.8-0.2,1.1-0.4c0.3-0.2,0.7-0.4,0.9-0.2C6.8,2.2,7,2.2,7.2,2.1l0,0.2c0.5,0,0.7-0.1,1.2-0.2  L8.3,2.3c0.3,0,0.4-0.6,0.7-0.7l0.1,0.3c0.6,0,1.2,0.3,1.8,0c0,0,0,0.1-0.1,0.2c0.3,0,1.1,0.2,1-0.2c0,0.3,0.6,0,1-0.1l0,0.2  c0.3-0.3,0.3-0.3,0.7-0.4c0.1,0,0.1,0.1,0,0.1c0.2,0,0.2-0.2,0.5-0.1l-0.1,0.1c0.3,0,0.3-0.1,0.5-0.2c0.2-0.1,0.6,0.1,0.7,0.2  c0-0.1,0.2-0.3,0.4-0.2c0,0.1,0,0.1-0.1,0.1c0.5,0.1,0.8-0.2,1.2,0c0,0.1,0,0.1,0.1,0.1c-0.4,0-0.8,0-0.7,0c0,0.2,0.3,0.2,0.1,0.5  C16.2,2,16.6,1.7,17,1.8c0,0,0,0,0,0.1l0,0c0.1,0,0.1,0,0.2,0c0.1,0,0.2,0.1,0.3,0.1C17.5,2.1,17.8,2,18,2c0-0.2,0.2-0.2,0-0.4  c0,0,0,0-0.1,0c0,0-0.1,0-0.1,0l0,0c-0.1,0-0.3,0-0.4,0c0.1-0.1,0.3-0.2,0.5-0.1c0.1-0.1,0.2-0.3,0.2-0.3c0.2,0.3,0.7,0.4,0.7,0.6  c0.5-0.1,1.2,0,1.5-0.4c0.1,0,0.2,0.1,0.2,0.2c-0.1,0-0.2,0-0.2,0.1c0.3-0.1,0.9,0,1-0.3c0.3,0.2-0.2,0.2,0.3,0.2l-0.1,0.1  C21.9,2.1,22.3,2,22.7,2c0.4,0,0.9,0,1.2,0.5c0-0.1-0.1-0.1-0.1-0.1c0.5,0.4,1,0.7,1.5,1.1c0.5,0.4,0.9,0.9,1,1.5  c0.1,0.3,0.3,0.3,0.5,0.4l-0.2,0.2l0.4,0.2c0.4,0.4-0.2,1,0.3,1.5L27.5,7c0,0.2,0.2,0.7,0,0.7c0,0,0.2,0.1,0.1,0.2l-0.1,0l0.3,0.6  c-0.1,0.5-0.5,0-0.5,0.6c0.1,0.2,0.4,0.7,0.4,0.6c0-0.1,0.1-0.3,0.2-0.3L28,9.6c0.1,0,0.3,0,0.4,0c0,0,0,0.1,0,0.1l0.2,0.1l-0.1-0.2  c0,0,0,0,0,0c0.1,0,0.3-0.1,0.4-0.4l-0.2-0.4l0.2-0.1L28.9,9z M16.4,0.6c0,0-0.1-0.1-0.2-0.2c0.1,0,0.2,0,0.3,0  C16.5,0.6,16.5,0.6,16.4,0.6z M16.9,0.5L16.9,0.5c0.1,0,0.1,0,0.2,0C17,0.5,17,0.5,16.9,0.5z M17.7,1.9L17.7,1.9  C17.7,1.9,17.7,1.9,17.7,1.9c-0.1,0.1-0.2,0.1-0.2,0C17.5,1.9,17.6,1.9,17.7,1.9z"/></svg>