<?xml version="1.0" ?><svg id="Layer_1" style="enable-background:new 0 0 31.8 25.7;" version="1.1" viewBox="0 0 31.8 25.7" xml:space="preserve" xmlns="http://www.w3.org/2000/svg" xmlns:xlink="http://www.w3.org/1999/xlink"><style type="text/css">
	.st0{fill:#429CD6;}
</style><path class="st0" d="M29.8,3.4c-0.1,0-0.3,0.1-0.4,0.2l-0.1-0.2c0,0.1,0,0.2,0,0.2c-0.1,0-0.2,0.1-0.3,0l0.1-0.1c-0.1,0-0.2,0-0.2,0  C28.8,3.5,28.8,3.3,29,3l-0.1,0c0-0.1,0-0.2,0-0.2c0.2-0.1,0.5-0.2,0.7-0.3l-0.2-0.2h0.1c0-0.1,0-0.3,0.1-0.6l0.1-1.1L29,1.2  c-0.1,0.1-0.3,0.2-0.4,0.4l-0.1-0.1c0.1-0.2,0.3-0.3,0.4-0.5l0.3-0.3L28.9,1c-0.2,0.1-0.5,0.3-0.5,0.4l-0.1-0.1  C28.1,1.5,28,1.8,27.8,2c-0.1,0-0.1,0.1-0.2,0.1c-0.1-0.5-1.3,0.4-1.8,0c-0.1,0.1-0.3,0.2-0.4,0l-0.2-0.3c-0.1-0.1-0.3-0.2-0.4-0.3  c-0.3-0.2-0.6-0.4-0.9-0.6c0.2,0.6-0.3-0.1-0.4,0.3c-0.3-0.1-0.4-0.1-0.4-0.2l0,0c0,0,0,0,0,0l0,0c0,0-0.7-0.5-0.7-0.5  c-0.2-0.2,0.3,0,0.3-0.1C22,0.3,22.4,0.2,22,0c0.1,0.2-0.3,0.2-0.6,0.1c0,0,0.1,0.1,0.2,0.1c0.1,0.1,0.2,0.1,0.2,0.1  c-0.9,0.2-0.7-0.5-1.7-0.2L20.5,0c-0.5,0.1-1.8,0.3-2,0.8c-0.1,0-0.2-0.1-0.1-0.2c-0.5,0.2-1.1,0.6-1.5,1c-0.4,0.4-0.8,0.8-1.1,1  l0-0.1c-0.1,0.2-0.1,0.4-0.3,0.5c0,0,0-0.1-0.1-0.1c0,0.1-0.2,0.6-0.3,0.8l0-0.3c-0.7,0.9-0.5,1.6-0.6,2.4c-0.3-0.1-0.6,0.8-0.6,1.2  l0,0c0,0.2,0,0.1,0,0.2c0,0,0,0,0,0.1c0,0.1,0.1,0.1,0.1,0.2c0,0.1-0.1,0.2-0.3,0.3c0-0.1-0.2-0.2-0.5-0.2c-0.2-0.1-0.5-0.1-0.8-0.2  c-0.5-0.1-1.1-0.3-1.5-0.5C11,6.9,10.8,7,10.6,7c-0.2-0.1-0.7,0-0.5-0.3l0.1,0c-0.1-0.3-0.5-0.4-0.8-0.6L9.1,6.5  c-0.6-0.9-2.3-1-2.5-1.7c-0.2,0-0.5-0.2-0.7-0.3l0.1-0.2C5.6,3.9,5.4,3.7,4.8,3.2l0.2,0C4.8,3.1,4.6,3.1,4.4,3.1  c-0.1,0-0.3,0-0.4-0.1C4,3,3.8,2.9,3.7,2.8c0,0,0-0.5,0-0.5C3.3,1.9,2.8,1.3,2.3,0.7C2.2,0.8,2,1.2,1.9,1.4c-0.1,0.3-0.3,0.6-0.4,1  c0-0.1-0.1-0.2,0-0.4C1.4,2.3,1.1,2.8,0.9,3.4C0.9,3.6,0.8,3.9,0.8,4c0,0.2,0.1,0.2,0.2,0.2c-0.3,0-0.2,1,0,1.4L0.8,5.6  C1.1,6,1.2,6,1.4,6.5c0,0.1-0.1,0.1-0.1,0c0,0.5,0.3,0.3,0.3,0.8L1.4,7.2c0.1,0.4,0.2,0.4,0.4,0.6C1.9,7.9,2.1,8.5,2,8.7  c0.1,0,0.4,0.1,0.5,0.4c0,0.1-0.1,0-0.2,0c0.2,0.5,0.5,0.6,0.8,0.8c0,0-0.1,0-0.1,0C2.6,9.5,1.5,8.7,1.1,8.3C1,8.3,0.9,8.3,0.9,8.2  c0,0.1,0,0.2,0,0.3c0,0,0,0.1,0,0.1l0,0.2c0,0.3,0.1,0.6,0.1,0.8c0.1,0.5,0.2,1,0.5,1.3c0.1,0.2-0.1,0.3-0.1,0.4  c-0.1-0.2-0.1-0.3-0.2-0.4c0.1,0.3,0.2,0.7,0.4,1c0.1,0.3,0.3,0.5,0.4,0.5c0.1,0.5-0.4-0.2,0,0.5l-0.1,0C2,13.6,2.5,14,3,14.3  c0.5,0.3,1,0.5,1.5,1.1c-0.4,0-0.8-0.1-1.2-0.2c0,0-0.1,0.1-0.1,0.1c-0.1,0-0.1,0-0.1,0.1c0,0.2,0.1,0.4,0.1,0.5  c0.1,0.5,0.4,0.7,0.7,1l-0.2,0.1c0,0,0.6,0.5,0.6,0.5c0.3,0.3,0.4,0.6,0.6,0.9c0.2,0.3,0.4,0.7,0.9,0.8l0-0.2  c0.3,0.2,0.9,0.5,0.8,0.6c0,0,0.2-0.1,0.3,0l0,0.1c0,0,0.8,0.1,0.8,0.1c0.6,0.2-0.2,0.5,0.7,0.7c0.1,0,0.1,0,0.2,0  c-0.1,0.1-0.1,0.1-0.2,0.2c-0.1,0-0.1-0.1-0.1-0.1c-0.1,0.2-0.2,0.5,0,0.6c0.1-0.3,0.2-0.3,0.2-0.6c0.1-0.1,0.3-0.1,0.3,0  c0-0.1,0.2-0.1,0.2-0.3c0.1-0.1,0.2-0.1,0.2-0.2C9.2,20.2,9,20.2,9,20l0.3,0c0.1-0.3,0.3-0.7-0.3-1c0,0-0.1,0-0.2,0.1  c-0.1,0-0.2,0.1-0.2,0.1L8.4,19L8.8,19c-0.2-0.2-0.3-0.1-0.5,0c0-0.1-0.1-0.2-0.1-0.2c0,0-0.1,0-0.3,0.1c-0.1,0-0.3,0.1-0.3,0.1  c0-0.1,0.3-0.2,0-0.4c-0.2,0.1,0.1,0.4-0.3,0.3c-0.1-0.2,0-0.3-0.3-0.3c0-0.1,0.1-0.1,0.2-0.1c-0.2,0-0.5-0.2-0.7-0.2  c-0.1-0.3-0.6-0.4-0.4-0.7c-0.1,0-0.5-0.1-0.6-0.2c0.3,0,0.1-0.2,0-0.3c0-0.1-0.1-0.1,0.2-0.2c-0.2,0-0.3,0-0.4-0.1  c-0.1-0.1-0.1-0.2-0.3-0.3c0.1,0,0.2,0.1,0.1,0.1c0,0,0,0,0,0c0,0,0.1,0,0.1,0.1c0.1,0,0.1,0.1,0.2,0.1l0,0  c-0.4-0.3-0.3-0.3-0.3-0.5c0.2,0.1,0.2,0.2,0.2,0.3c0,0.1,0.1,0.2,0.2,0.3c-0.2-0.2,0-0.2-0.1-0.4c0.1,0.1,0.1,0.1,0.1,0.1  c0,0,0.1,0.1,0.2,0.2c0-0.4,0.3-0.1,0.5-0.4c0.1,0,0.1,0,0.2,0L8.3,17l-1.6-2.2c-0.1-0.2,0-0.2-0.3-0.2c-0.1-0.2,0.2-0.2,0.2-0.2  c-0.4-0.1-0.3,0.2-0.4,0.3c-0.5-0.1-0.2-0.3-0.3-0.5c-0.3,0-0.6,0.1-0.8,0c0,0,0-0.1,0.1-0.1c-0.4,0-0.8-0.5-1.2-0.6  c0,0,0-0.1,0-0.1c-0.1,0.1-0.1,0.3-0.2,0.3c-0.1-0.1-0.4-0.2-0.3-0.3c0.1,0.1,0.1,0.1,0.2,0.1l-0.2-0.1c0.1-0.3,0.3,0.2,0.4,0  c-0.3-0.2-0.8-0.5-0.9-0.8c0.2-0.2,0.5,0.5,0.4,0.1c0,0,0,0.1,0.1,0.2c0.1,0.1,0.1,0.2,0.1,0.2c0.1-0.5,0.2,0.2,0.3-0.3  c-0.3-0.5-0.5-0.4-0.7-1c-0.2-0.1-0.2,0.1-0.4,0.1c-0.5-0.7,0.5-0.4,0.1-0.6c-0.2-0.1-0.6-0.5-0.4-0.6c0,0,0.4,0.4,0.4,0.4  c0-0.1-0.5-0.7-0.2-0.4c0,0,0,0,0.1,0.1c0,0,0,0,0,0.1c0,0-0.1,0,0,0C2.8,11,2.8,11,2.8,10.9c0-0.1-0.2-0.3-0.1-0.2L3,11  c0.1,0,0.1,0,0.3,0c0,0,0.1,0,0.2,0l0.3,0l0.1,0c0,0,0,0,0,0l0,0l0.5,0l2.2-0.1L4.7,9.8L4.5,9.7c0.1,0,0.2,0,0.1-0.2  C3.9,9,3.3,8.2,3.2,7.4L2.9,7.2c0-0.1,0-0.2,0.1-0.1c0-0.3-0.1,0-0.3-0.1C2.6,6.8,2.8,6.7,2.9,6.8C2.5,6.4,2.2,5.2,2.5,4.7l0.1,0.1  c0.1-0.2,0-0.4-0.1-0.4C2.4,4.3,2.3,4.1,2.4,4l0,0.1l0.2-0.4l0.1-0.2c0-0.1,0.1-0.1,0.1-0.1C3,3.7,3.2,4,3.2,4.2  c0.1-0.2,0.3,0.1,0.5,0.3c0.2,0.2,0.4,0.4,0.6,0.3c0.4,0.6,0.2,0.6,0.9,1.3c0.2,0.2,0.5,0,0.8,0.1L5.8,6.4l0.5,0l0.1,0.4l0.3,0.1  C6.5,6.8,6.4,6.7,6.5,6.6c0.4,0.2,0.9,0.7,0.9,0.8c0,0,0.3,0.1,0.5,0.2c0.3,0.1,0.6,0.2,0.6,0.2c-0.1,0.1-0.2,0-0.4,0  c0.6,0,0,0.3,0.6,0.3C8.6,8,8.7,8,8.8,8C9,8.2,9.5,8.4,10,8.5L9.9,8.6c0.8,0.3,1.7,0.5,2.6,0.6c-0.3-0.1-0.2-0.4,0.1-0.4l0.1,0.3  C12.9,9,12.4,9,12.8,8.9c0.3,0.1,0.2,0.3,0,0.4l0.4,0c0,0.1-0.1,0.1-0.1,0.2c0.1-0.1,0.2,0,0.6,0.1c0.4,0.1,0.7,0.2,0.9,0l0.1,0.1  c0.7,0.1,1.3,0.1,1.6,0.1C16.2,9,16,8.3,15.9,7.5c-0.1,0-0.2-0.2-0.2-0.3c0-0.1-0.1-0.2-0.1-0.3c0.1-0.5,0.3-0.9,0.5-1.5  c0-0.4-0.1-0.2-0.2-0.4c0.2,0,0.4-0.5,0.4-0.1c0.3-0.6,0.4-0.8,0.8-1.5c-0.1,0-0.2,0.1-0.2,0c0.1-0.1,0.3-0.2,0.4-0.1l0,0  c0.3-0.4,0.8-0.7,1.3-0.8c0.5-0.1,1-0.1,1.3-0.4l0,0c0,0,0.7-0.3,0.7-0.3c0.4,0-0.2,0.2,0.1,0.3c0.8-0.3,1.3,0.1,2,0.1  c0.1,0.3,0.4,0.4,0.8,0.6c0.4,0.2,0.6,0.3,1.1,0.8c0.3,0.2,0.5,0.4,0.8,0.5L25.2,4c0.4-0.1,0.4,0,0.7,0c-0.1-0.1-0.4,0-0.2-0.2  l0.6-0.2l0.2-0.1c-0.2,0.2-0.3,0.3-0.5,0.5l-3.7,2.6l4.3-0.8c0.2,0,0.4-0.1,0.6-0.1c-0.1,0.2-0.4,0.3-0.7,0.6  c-0.1,0.1-0.1,0.2,0,0.2c-0.1-0.1-0.5,0.1-0.5,0.6c0,0.6,0,0.8,0.1,0.9c-0.1-0.1-0.1,0.3-0.2,0.1c0,0.4,0,0.7,0.2,0.6  C25.9,9.2,26,9.5,26,9.8c0,0.3,0,0.6-0.3,0.7c0,1.1-0.1,2-0.3,3c-0.3-0.1,0.3-1-0.1-1.1c-0.1,0.9,0,1.5-0.5,2.3  c-0.1,0.2-0.1-0.2-0.1-0.3c-0.2,0.9-0.8,1.5-1,2.3c0,0,0-0.1,0-0.2c-0.1,0.1-0.2,0.3-0.1,0.4l0-0.2c0.3-0.1,0.1,0.8,0.1,0.9  c-0.2-0.5-0.6,0.6-0.8-0.1c0,0.1-0.1,0.2,0,0.3c-0.1,0.1-0.2,0.1-0.2-0.1c-0.3,0.5,0,0.4-0.3,0.9c-0.1,0,0-0.1-0.1-0.2  c0,0.3-0.1,0.6-0.4,0.9c0,0-0.1-0.1,0-0.1c-0.5,0.6-0.6,1.2-1.3,1.7c0-0.4-0.3,0.1-0.5-0.1L20,21l0.2,0c-0.3,0.2-0.5,0.6-0.8,0.7  l0.2-0.3l-0.6,0.5l0.4-0.1c-0.2,0.3,0.2,0.3-0.2,0.5c0.1-0.1-0.3,0.2-0.6,0.2l0,0c-0.1,0.2-0.2,0.4-0.5,0.4c-0.1,0-0.1-0.3-0.2-0.3  c-0.1,0.3-0.8,0.5-0.9,0.8c0-0.1,0-0.2,0-0.2l-0.1,0.2c-0.2,0-0.2,0-0.2-0.1c-0.5,0.2,0.3,0.3-0.4,0.4c0,0,0-0.1,0.1-0.1  c-0.6,0.2-1.1,0.6-1.7,0.6c-0.2-0.2,0.5-0.2,0.2-0.4c-0.8,0.3-1.6,0.8-2.5,0.8l0.2,0c-0.1,0.4-0.6-0.1-1,0.1c0.1,0,0.1-0.2,0.1-0.2  c-0.6,0-1.1,0.2-2,0.3l0.1-0.1c-0.3-0.1-0.9-0.1-1.2-0.2c-0.1,0.1-0.3,0.1-0.2,0.2c-1-0.6-2.2,0-3-0.7c0.1,0,0.3,0,0.2,0  c0,0-0.2,0-0.4-0.1c-0.1,0-0.3,0-0.3,0c-0.1,0.2,0,0.1,0.1,0.3c-0.1,0.1-0.4,0.1-0.6,0c0.4,0,0.2-0.2,0.2-0.3c0,0-0.1,0.1-0.2,0.1  c0-0.3-0.5,0.2-0.7-0.1l0.2,0c-0.2,0-0.6-0.1-0.8-0.2c0.3-0.1,0.4,0.1,0.7,0c-0.1,0-0.4-0.1-0.7-0.1c-0.3,0-0.5-0.1-0.4-0.2  c0.3,0.1,0.4,0.1,0.7,0.2c0.3-0.2,0.2-0.1,0.1-0.2l0,0c0,0,0-0.2,0-0.2l-0.1,0c-1.8-0.3-1-0.4-2.3-0.7c0,0,0.1,0,0.1,0  c0.1,0,0.2,0,0.2,0.1c0.1,0,0.2,0.1,0.3,0.1c0.2,0,0.2,0,0.3,0.1c0.1,0,0.1,0,0.6,0.1c0.3,0,0.7,0.1,0.9,0.1c-0.3-0.1-0.1,0,0.1,0  c0.2,0,0.2,0-0.1-0.1c0.2,0.1,0.2,0,0.7,0.1c0,0-0.4-0.1-0.6-0.1c-0.2-0.1,0.3,0,0.6,0c0.3,0,0.5,0.1,0.6-0.1  c0.3-0.2,0.3-0.4,0.9-0.7c0.2,0-0.1,0.3-0.1,0.3c0.4,0,0.6-0.1,0.9-0.3c0,0.1,0,0.1,0.2,0.2c0.3-0.1,0.1-0.3,0.4-0.3  c0,0.1,0,0.2-0.1,0.4c0.3-0.2,0.5-0.4,0.8-0.6c0.1,0.1-0.1,0.3-0.2,0.4C7.5,21.7,8,21.4,8,21.2l-0.2,0c0.1-0.1,0.1,0.1,0.1,0.2  c-0.2,0.3-0.4,0.2-0.5,0.1l0.2-0.1c-0.4-0.3-0.8,0.5-1.3,0.6l0.1-0.4L6,22c-0.1,0-0.2-0.2,0-0.3c-0.4,0-0.2,0.2-0.6,0.1  c0,0,0,0,0-0.1L5.1,22c0-0.1-0.1-0.2,0.1-0.2c-0.3,0-0.6,0.1-0.8,0.2C4.2,22,4.1,22.1,3.9,22l0,0c-0.5,0.1-0.4,0.2-0.3,0.2  c0.1,0.1,0.3,0.2,0.2,0.3c0,0-0.3-0.1-0.7-0.2c-0.5-0.1-1-0.3-1-0.3l0.5,0.2c-0.1,0-0.4,0-0.6-0.1c0.1,0.2,0.4,0.1,0.6,0.3  c-0.6-0.1-0.8-0.1-1,0c-0.2,0-0.5,0-1.1-0.1c0.5,0.1,0.8,0.1,0.9,0.2c-0.7-0.1-0.7-0.1-0.7-0.1c0.1,0,0,0-0.2,0  c-0.2-0.1-0.1-0.1-0.4-0.1c0.3,0,0.2,0.3,0.5,0.5c0.5,0,0.6,0.4,1.3,0.6c-0.2,0,0.7,0.5,1.2,0.8l-0.1,0c0.5-0.1,1,0.2,1.4,0.2  c-0.1,0.1-0.3,0.2-0.6,0.1l0.5,0.2c0.2,0,0.3,0,0.6,0L4.6,25c0.6,0.2,1,0,1.6,0.3c0.1-0.2-0.3-0.6,0.3-0.6c0,0.1,0,0.3-0.2,0.3  c0.1,0,0.2,0,0.3,0l-0.3,0.1C6.5,25.2,6.4,25,6.6,25c0,0.1,0.1,0.1,0.1,0.2c-0.1,0-0.2-0.1-0.3-0.1C6.7,25.3,7,25.4,7,25.5  c0-0.1,0-0.2,0.2-0.2c0.5,0,0.1,0.2,0.4,0.3c0.1-0.1,0.4,0,0.4-0.2c0.1,0,0.2,0.1,0.2,0.2c0.2-0.1,1.1,0.1,0.9-0.2l-0.1,0  c0,0,0,0,0,0c0.8-0.2,1.6,0.1,2.4,0l0,0.1c0.5-0.1,1-0.2,1.3-0.4c0.1,0,0.3,0.1,0.3,0.2c0.3-0.1,0.4-0.2,0.9-0.2  c-0.3,0.2,0.1,0.1-0.3,0.2c0.5,0,0.6,0.1,1-0.3c-0.1,0.2,0.4,0.1,0.6,0l-0.4,0c0.2-0.1,0.4-0.1,0.7-0.2l0,0.3c1,0,1.4-1.1,2.3-1  c0.1-0.3-0.5,0.1-0.4-0.2c0.4-0.2,1-0.1,1.1-0.1c0.6-0.2,0.3-0.6,0.9-0.9c-0.1,0-0.3-0.2,0-0.5c0.4-0.2,0.7,0,0.5,0.2  c-0.1,0.1-0.1,0.1-0.2,0c-0.1,0.1-0.2,0.2,0,0.2l0-0.1c0.2,0,0.7-0.4,0.7-0.2c0.2-0.3,0-0.2-0.2-0.1c0.5-0.2,0.7-0.5,1.2-0.8  c-0.1,0-0.2,0-0.2-0.1c0.7-0.5,0.2-0.4,0.6-0.8c0.3-0.1,0.1,0.3,0.5-0.2c0.3-0.2,0.2,0.1,0.2,0.3c0.3-0.5,0.8-0.7,1-0.9l-0.1,0.3  c0.1-0.2,0.2-0.3,0.3-0.4l-0.2,0c0.1-0.1,0.2-0.2,0.3-0.2c0-0.2-0.3-0.1-0.2-0.5c0.2-0.1,0.3-0.6,0.6-0.5c-0.5,0.5,0.2,0.1-0.1,0.6  c0-0.1,0.1-0.2,0.3-0.3c0,0,0,0,0,0.1c0.6-0.4,0-0.4,0.4-1c0.1,0.1,0.3,0,0.3-0.1c-0.2,0.2-0.3,0-0.2-0.3c0.3-0.3,0.2-0.4,0.3-0.6  l-0.2,0.2c-0.1-0.1,0.1-0.3,0.2-0.6c0.1,0-0.1,0.3,0,0.2c0-0.4,0.6-0.5,0.7-1c0.2-0.2,0.2,0.1,0.4-0.1c0.1-0.6,0.4-0.5,0.5-1  c-0.2,0.1-0.2,0.1-0.2-0.3c0,0-0.1,0.2-0.1,0.4c-0.1,0.2-0.1,0.4-0.1,0.4l0-0.6C26,15,26,15.3,25.9,15.5c0-0.3,0-0.3-0.2-0.2  c0.4-0.2,0.2-0.7,0.5-1.1l0.4,0.2c0.4-0.6,0.2-1.2,0.5-2L27,12.6c-0.1-0.2,0.1-0.5,0.1-0.8c0.1,0.1,0.2-0.1,0.3-0.2  c-0.1,0,0.1-0.6-0.2-0.7l0.3-0.3c0.2-0.7-0.3-0.8-0.2-1.5c0.1,0.2,0.3-0.1,0.4,0.4c0-0.2,0.1-0.4,0-0.4c0.1-0.1-0.1-0.6,0-0.8  c-0.1-0.1-0.2-0.1-0.2-0.4c0,0,0.1,0,0.1,0c-0.1,0-0.1-0.3-0.3-0.2c0.2-0.2,0.1-0.4,0.4-0.5c0.1-0.1,0.4-0.3,0.6-0.5  c0.2-0.2,0.4-0.3,0.6-0.3c0.3-0.4,0.6-0.8,0.9-1.1c0,0,0.1,0,0.1,0c0,0,0,0,0,0c0,0,0,0,0,0C30,5.1,30.2,5,30.4,4.9L30,4.4  c0-0.1,0.1-0.1,0.2-0.2c0.4-0.1-0.1,0.4,0.1,0.2c0.1,0.1,0.2,0,0.3-0.1l1.2-1.6L29.8,3.4z M4.7,15.4C4.7,15.4,4.6,15.4,4.7,15.4  c-0.1,0-0.1-0.1-0.1-0.1C4.6,15.3,4.6,15.4,4.7,15.4z M4.5,9.7c0.1,0,0.1,0.1,0.2,0.1C4.6,9.8,4.6,9.8,4.5,9.7L4.5,9.7z M4.1,9.4  C4.1,9.4,4.1,9.5,4.1,9.4c-0.1,0-0.1,0-0.2,0c0,0-0.1-0.2-0.1-0.3C3.9,9.2,4,9.3,4.1,9.4z M28.6,1.2c0,0.1-0.1,0.1-0.2,0.2l-0.1-0.1  C28.4,1.3,28.5,1.2,28.6,1.2z M26.9,3.5c0.1,0,0.2-0.1,0.3-0.1C27.1,3.5,27.1,3.6,26.9,3.5L26.9,3.5L26.9,3.5z"/></svg>