<?xml version="1.0" ?><svg id="Layer_1" style="enable-background:new 0 0 30.7 26.6;" version="1.1" viewBox="0 0 30.7 26.6" xml:space="preserve" xmlns="http://www.w3.org/2000/svg" xmlns:xlink="http://www.w3.org/1999/xlink"><style type="text/css">
	.st0{fill:#1EB7EA;}
</style><path class="st0" d="M30.5,6.2C30.5,6.2,30.6,6.3,30.5,6.2c-0.2-0.4-0.3-1.1-0.4-1.6c0.2,0.1,0.1,0.2,0.3,0.1  c-0.1-0.2-0.3,0.1-0.4-0.3c0.1-0.2,0.1-0.5,0.3-0.6l0.1,0.4c0.2-0.3-0.1-0.6-0.2-0.8l0.1,0c-0.3-0.7-0.5-0.6-0.9-1.2l0,0.1  c-0.5-0.2-0.1-0.4-0.5-0.6L29,1.4c-0.3-0.2-1-0.4-1.4-0.5c0.3-0.1,0.9,0.1,1.3,0.2C28.6,1,28,0.6,27.8,0.7c0.1,0,0.3,0,0.4,0.1  c-0.4,0-0.9,0-1.4-0.1c0.1-0.3-0.2-0.4-0.7-0.4c-0.4-0.1-0.9-0.1-1.1-0.3c-0.9,0.2-1.9,0.1-3,0.5c0.5,0.3-0.3,0.1-0.1,0.5  c-0.2,0.1-0.3,0.2-0.3,0.1c0,0,0,0,0,0l0,0c0,0-0.2,0-0.4,0.1c-0.2,0-0.4,0.1-0.4,0.1c-0.2,0,0.2-0.2,0.1-0.3  c-0.5,0.3-0.3,0-0.7,0.1c0.2,0.1,0,0.3-0.3,0.5l0.5-0.1c-0.5,0.7-0.8,0.1-1.2,0.9l0.1-0.3c-0.3,0.3-1,1.2-0.9,1.8  c-0.1,0-0.2,0-0.2-0.1C18,4,17.9,4.2,17.8,4.4c-0.1,0.3-0.2,0.4-0.3,0.9c-0.3,0.8-0.4,1.3-0.7,1.9l-0.1,0c-0.1,0.3,0.1,0.3-0.1,0.7  c-0.1,0-0.1,0-0.2,0.1c0,0.1,0,0.2,0,0.3c0,0.1,0,0.2,0,0.2c0,0,0,0.1,0,0.2c0,0-0.2,0-0.2,0c0,0.1-0.1,0.3-0.1,0.4  c0.7-0.3,1.5-0.6,2.1-0.9c0.6-0.3,1.1-0.5,1.5-0.6c0,0.3,0.6,0.5,0.7,0.6l0,0c0.2,0.1,0.2,0,0.4,0.2c0.2,0.2,0.3,0.5,0.3,0.9  c-0.2,0.2-0.3,0.6-0.5,1.1c-0.2,0.4-0.4,0.9-0.7,1.3c0.1-0.1,0.2,0.1,0.2,0.3c-0.2,0.2-0.1,0.6-0.3,0.4l0-0.1  c-0.3,0-0.5,0.4-0.7,0.7l0.3,0.3c-1,0.5-1.2,2.1-1.9,2c0,0.1-0.1,0.2-0.2,0.3c-0.1,0.1,0,0.1,0,0.2L17,15.6c-0.1,0-0.1,0-0.2-0.1  c0,0,0,0-0.1,0c0,0,0.1,0,0.1-0.1c-0.1,0-0.6,0.1-0.8-0.2l0.2-0.2c-0.3-0.7-0.2-1.4-0.7-2c0,0,0.1,0,0.2,0.1  c-0.1-0.3-0.1-1.4-0.5-1.1c0.3-0.1-0.1-0.8-0.3-1.1l0.2,0c-0.3-0.3-0.4-0.3-0.6-0.7c0-0.1,0.1-0.1,0.1,0c0-0.4-0.2-0.3-0.2-0.7  l0.2,0.1c-0.1-0.4-0.1-0.3-0.3-0.5c-0.1-0.2-0.1-0.7,0.1-0.8c-0.1,0-0.3-0.2-0.3-0.5c0.1,0,0.1,0,0.2,0.1c0-0.7-0.4-0.9-0.3-1.4  c0.1,0,0.1-0.1,0.1-0.1c0.1,0.5,0.1,0.9,0.1,0.9c0.2,0,0.2-0.5,0.5-0.2c-0.2-0.3-0.6-0.8-0.6-1.3c0,0,0,0,0.1-0.1l0,0  c0-0.1,0-0.2-0.1-0.3c0-0.1,0-0.2,0-0.4c0.1-0.1,0-0.5,0-0.7c-0.2,0.1-0.2-0.2-0.3,0.1c0,0,0,0,0.1,0.2c0,0,0,0.1,0,0.1l0,0  c0,0.1,0.1,0.3,0.1,0.5c-0.1-0.1-0.3-0.3-0.2-0.6c-0.1-0.1-0.3-0.2-0.4-0.2c0.2-0.4,0.2-1,0.3-1.1c-0.4-0.6-0.9-1.5-1.5-1.6  c-0.2-0.1-0.1-0.2-0.1-0.3c0.1,0.1,0.2,0.2,0.3,0.2c-0.3-0.3-1.1-0.8-1.3-0.5c-0.4-0.3,0.4-0.1-0.3-0.3l0.1-0.1  c-0.7-0.4-1.4-0.3-1.9,0C8.4,1,8,1.3,7.3,1.5c0.1,0,0.2,0,0.2,0C7.1,1.6,6.7,1.8,6.4,2C6,2.3,5.7,2.6,5.4,2.9  C4.8,3.4,4.2,3.9,3.5,4.3C3.1,4.5,3.2,4.7,3.1,5L2.8,4.9L2.7,5.4C2.3,5.9,1.5,5.6,1,6.5l0.2,0c-0.3,0.2-0.8,0.8-1,0.7  c0,0,0.1,0.1-0.1,0.2L0,7.5c0,0,0.2,0.2,0.4,0.4C0.6,8,0.8,8.2,0.8,8.2c0.2,0.3,0.1,0.3,0,0.4c0,0-0.1,0.1-0.1,0.2  c0,0.1,0.1,0.2,0.2,0.4c0.2,0.2,0.8,0.5,0.8,0.3C1.7,9.4,1.6,9.2,1.7,9.1l0.2,0.2c0.2-0.1,0.5-0.2,0.5-0.4c0.2-0.1,0.3-0.2,0.4-0.4  c0.1,0,0.1,0.1,0.1,0.1C3,8.4,3.1,8.1,2.9,8c0,0.3-0.1,0.2-0.2,0.6c-0.1,0.1-0.2,0.1-0.3,0c0-0.1,0-0.2-0.1-0.3L1.9,8.1  c0,0,0-0.2,0.1-0.2l0.2,0.3c0-0.3-0.2-0.3-0.3-0.3C2,7.8,2,7.8,2,7.8c0,0-0.4,0-0.5-0.1c0.2,0,0.4,0,0.4,0C1.7,7.6,1.7,7.8,1.4,7.6  c0.2-0.1,0.4,0,0.3-0.1c0.1,0,0.2,0.1,0.2,0.1C1.8,7.5,2,7.5,1.9,7.3C2,7.4,2.1,7.2,2.3,7.1c0.1-0.1,0.2-0.2,0.3,0  c0-0.1,0.1-0.5,0.3-0.6c0,0.6,0.6-0.5,0.8-0.1c0-0.5,0.7-0.8,1-1.3c0,0,0,0.1-0.1,0.1C4.9,4.9,5,5,5.2,4.9C5.1,4.6,5.4,4.3,5.4,4  c0.5,0,0.1,0.4,0.3,0.5C5.6,4.4,6.1,4,5.9,3.9c0.3,0,0.2-0.1,0.5,0C6.2,3.6,6.5,3.7,6.5,3.4C7,3.3,6.8,3.6,7.1,3.3  c0.2,0,0,0.3,0,0.3c0.3-0.3,0-0.3,0-0.5c0.4-0.3,0.3,0.1,0.5,0.1c0.2-0.2,0.3-0.6,0.5-0.7c0,0,0.1,0,0.1,0.1  c0.1-0.2,0.3-0.3,0.5-0.4C8.9,2.1,9.1,2,9.2,1.8c0,0,0,0,0.1,0.1C9.2,1.8,9.1,1.6,9.1,1.5c0.2,0,0.3-0.2,0.4,0  c-0.1,0-0.1,0.1-0.2,0.1l0.2-0.1c0.2,0.3-0.2,0.1-0.2,0.3c0.3-0.1,0.8-0.3,1-0.2c0,0.2-0.6,0-0.3,0.3c0,0-0.4-0.1-0.4-0.1  c0.3,0.4-0.2,0,0,0.4c0.4,0.1,0.5-0.1,0.9,0.1c0.2-0.1,0.1-0.2,0.2-0.3c0.4,0.1,0.4,0.3,0.4,0.5c0,0.2-0.1,0.3,0.2,0.4  c0.2,0,0.5-0.1,0.6,0.3l-0.3,0C12,3.7,12.3,3.3,12.3,4c-0.1-0.1-0.3-0.4-0.3-0.3c-0.1,0.4,0.3,0.2,0.4,0.4l-0.2,0.1  c0.2,0.5,0.5,1.2,0.7,1.9c-0.1,0-0.2-0.1-0.2,0C13,7.1,13,8.2,13,9.1l0.3,0.3c0,0.1-0.1,0.2-0.1,0.1c0,0.4,0.1,0,0.3,0.1  c0,0.2-0.1,0.3-0.2,0.2c0.3,0.6,0.7,1.7,0.6,2.3L13.7,12c0,0.5,0.6,0.5,0.5,1l-0.1-0.1c0.1,1.1,0.7,2.2,0.8,3.2  c0.1,0,0.2,0.1,0.4,0.4c0.1,0.3,0.4,0.5,0.6,0.6c0.2,0.1,0.3,0.1,0.4,0c0.4,0.3,0.6,0.4,0.8,0.4c0.2,0,0.5,0.1,1.2-0.4  c0.3-0.2,0.2-0.5,0.4-0.7l0.2,0.2l0.1-0.5l0.4,0l0.1-0.3c-0.1,0.1-0.2,0.1-0.3,0.1c0.2-0.4,0.8-0.8,0.9-0.7l0.4-1  c0.1,0.1,0,0.2,0,0.4c0.1-0.6,0.3,0,0.4-0.5c-0.1,0-0.1-0.1-0.1-0.1c0.3-0.1,0.6-0.6,0.7-1l0.1,0.1c0.4-0.7,0.7-1.5,1-2.4  c-0.2,0.3-0.4,0.2-0.4-0.1l0.3,0c-0.1-0.2-0.2,0.3-0.2-0.1c0.1-0.3,0.3-0.2,0.4,0c0,0,0-0.5,0-0.5c0.1,0,0.1,0.1,0.2,0.1  c-0.1-0.2,0.3-0.8,0.1-1.1l0.1,0c0-0.6-0.2-1-0.4-1.4c-0.2-0.4-0.6-0.8-1.1-1c-0.1,0.2-0.5,0-0.8,0.1c-0.3-0.1-0.6-0.2-0.9-0.2  c-0.2,0-0.2-0.1-0.3,0C19,6.4,19,6.4,18.9,6.6c0.1-0.2-0.1-0.1,0.2-0.3c0,0-0.1,0-0.1,0c0,0-0.1,0-0.1,0.1c0,0,0,0,0-0.1  c0,0-0.1-0.1-0.1-0.2c-0.1,0.1-0.2,0.2-0.3,0.2c0-0.1,0.2-0.2,0.3-0.2l0,0c-0.1-0.2,0.1-0.4,0.6-0.8c0.4-0.4,0.7-0.7,0.8-1.1l0,0  c0,0,0.1-0.2,0.2-0.4c0.1-0.2,0.2-0.4,0.2-0.4c0.3-0.2,0,0.2,0.2,0.2c0.4-0.8,1-0.8,1.5-1.3c0.4,0.1,0.7,0,1.2-0.2  C23.8,2,24.3,1.8,24.7,2l-0.1-0.1c0.2-0.1,0.2,0.1,0.4,0.1c0-0.1-0.2-0.1-0.1-0.2c0.8-0.1,1.6,0,2.2,0.3c0.6,0.3,1,0.8,1.2,1.4  c0.1,0.4,0.8,0,0.7,0.8l-0.3-0.1C29,4.6,29,5.2,29,5.8c0,0.6,0,1.2,0,1.8c0-0.1-0.1-0.1-0.1-0.2c-0.2,0.2-0.2,0.9-0.1,0.9  c-0.1,0.2-0.1,0-0.2,0.1c-0.2,0.2,0,0.7-0.2,0.7c0,0,0-0.1,0-0.1c0,0.2-0.3,0.7,0,0.6c-0.3,0.4-0.3,0.8-0.5,1.1  c0.1,0.3-0.5,0.7-0.2,0.9c-0.3-0.2-0.6,0.6-0.7,0.9c0-0.1-0.2,0.2-0.3,0c-0.2,0.3-0.3,0.6-0.1,0.6c-0.7,0.3-0.4,1.2-1.1,1.2  c-0.4,0.9-0.8,1.8-1.4,2.6c-0.2-0.2,0.6-0.8,0.3-1c-0.4,0.8-0.5,1.3-1.1,2c-0.2,0.1,0-0.2,0-0.3c-0.4,0.8-1.1,1.3-1.4,2  c0,0,0-0.1,0-0.2c-0.1,0.1-0.3,0.2-0.1,0.3l0.1-0.1c0.3,0-0.1,0.7,0,0.8c-0.2-0.5-0.6,0.5-0.7-0.2c0,0.1-0.1,0.2,0,0.3  c-0.1,0.1-0.2,0.1-0.2-0.1c-0.3,0.5-0.1,0.4-0.4,0.8c-0.1-0.1,0-0.1,0-0.2c-0.1,0.3-0.1,0.6-0.5,0.8c0,0-0.1-0.1,0-0.1  c-0.5,0.5-0.6,1.1-1.3,1.5c0-0.4-0.3,0.1-0.5-0.1L18,23.3l0.2,0c-0.3,0.2-0.4,0.6-0.7,0.7l0.2-0.2L17,24.1l0.4-0.1  c-0.2,0.3,0.2,0.3-0.2,0.5c0.1-0.1-0.3,0.2-0.6,0.1l0,0c-0.1,0.2-0.2,0.3-0.5,0.4C16,24.9,16,24.7,16,24.7c-0.1,0.3-0.7,0.4-0.9,0.6  c0.1-0.1,0-0.2,0-0.2L15,25.3c-0.2,0-0.2,0-0.2-0.2c-0.5,0.1,0.2,0.3-0.4,0.3c0,0,0,0,0.1-0.1c-0.6,0-1.1,0.2-1.6-0.1  c0-0.3,0.4,0.1,0.3-0.2c-0.6-0.1-1.4-0.4-1.8-1.1l0.1,0.1c-0.4,0.2-0.2-0.6-0.5-0.8c0.1,0.1,0.3,0,0.2,0c-0.2-0.5-0.6-0.9-1.1-1.6  l0.1,0c0-0.3-0.2-0.8-0.3-1.1c-0.1-0.1-0.2-0.3-0.3-0.1c0.3-1.2-0.8-1.9-0.6-2.9c0,0.1,0.2,0.2,0.1,0.1L8.8,17  c-0.1,0.1-0.1,0.1-0.2,0.3c-0.1-0.1-0.3-0.3-0.3-0.5c0.2,0.3,0.3-0.1,0.3-0.3c0,0-0.1,0-0.2,0c0.2-0.5-0.4,0-0.3-0.6l0.1,0  C8.2,15.9,8,15.7,8,15.5c0.2-0.1,0.2,0.2,0.3,0.2c-0.1-0.3-0.5-0.5-0.4-0.9C8,14.9,8,15.1,8.1,15.2c0.1-0.4,0.1-0.4,0-0.6l0,0l0-0.6  l0,0.2c-0.6-0.3-0.3-0.8-0.8-1.2c0.5,0.4,0.2,0,0.4,0c0-0.2,0-0.4,0.1-0.3c-0.2-0.2,0-0.5-0.3-0.7c0.1,0-0.1-0.3,0.1-0.3  c-0.2-0.3-0.1,0.1-0.2,0.1C7,11.3,7.3,10.4,6.7,9.8C6.3,9.3,6,9.3,5.6,8.8c0-0.2,0.3,0,0.3,0C5.8,8.5,5.6,8.3,5.3,8.1  c0.1,0,0.1-0.1,0-0.2C5,7.7,5,7.9,4.7,7.7c0.1-0.1,0.2-0.2,0.4-0.1C4.7,7.4,4.3,7.5,3.9,7.7C3.8,7.6,4.1,7.4,4.3,7.3  C4,7.4,3.7,7.5,3.5,7.7C3.4,7.9,3.3,8,3.3,8.1l0.2-0.1C3.4,8.2,3.4,8,3.4,7.9c0.2-0.3,0.5-0.2,0.5-0.1c0,0-0.2,0.2-0.2,0.2  c0.2,0.1,0.3,0,0.6-0.1C4.6,7.8,5,7.8,5.2,8c0,0-0.3,0.2-0.3,0.2c0,0,0.5,0.1,0.5,0.1c0,0.1-0.1,0.3-0.2,0.2  c0.1,0.3,0.3,0.1,0.3,0.4c0,0,0,0,0,0L5.6,9C5.5,9,5.4,9.2,5.4,9C5.5,9.5,6,9.6,5.9,9.9l0,0c0.4,0.6,0.2,0,0.7,0.4l-0.4,0.6l0.2,0  c0,0.1,0.1,0.2,0,0.2c0.2,0.2,0.1-0.1,0.3,0c-0.1,0.4,0.4,1,0.1,1.1c0.2,0.1,0-0.4,0.3,0c-0.3,0.2,0.2,0.4,0.1,0.8  c-0.2,0-0.2-0.4-0.3,0c0.4,0.1,0.1,0.7,0.2,0.9c0.3-0.1,0.3,0.6,0.5,1c-0.1,0,0.1,0.9,0.1,1.4l0,0c0.3,0,0.4,0.5,0.5,0.8  c-0.2,0-0.2,0-0.4-0.2l0.1,0.3c0.1,0,0.2,0.1,0.3,0.3l-0.2,0c0.1,0.4,0.5,0.8,0.5,1.3c0.2,0,0.4-0.6,0.7,0c-0.1,0-0.3,0.1-0.3,0  c0,0,0.1,0.1,0.1,0.3l-0.2-0.2c0,0.3,0.2,0.1,0.2,0.3c-0.1,0-0.1,0.2-0.2,0.2c0,0,0-0.2-0.1-0.2c0,0.2,0,0.5-0.1,0.6  c0.1,0,0.2-0.1,0.3,0.1c0.1,0.4-0.1,0.2-0.1,0.4c0.1,0.1,0.1,0.4,0.3,0.3c0,0.1-0.1,0.2-0.1,0.2c0.1,0.2,0.4,1,0.5,0.7l0-0.1l0,0  c0.5,0.6,0.5,1.4,1,2.1l-0.1,0c0.3,0.3,0.6,0.8,0.9,0.9c0.1,0.1,0.1,0.3,0,0.3c0.3,0.2,0.4,0.2,0.7,0.6c-0.4-0.1,0,0.2-0.4-0.2  c0.3,0.3,0.4,0.5,0.9,0.6c-0.3,0.1,0.3,0.4,0.5,0.4c0,0-0.1-0.1-0.2-0.1c-0.1-0.1-0.1-0.1-0.1-0.1c0.3,0.1,0.5,0.1,0.7,0.2l-0.2,0.2  c0.5,0.3,1.1,0.1,1.4-0.1c0.4-0.2,0.7-0.3,1.1-0.2c0.2-0.2-0.5,0-0.4-0.2c0.4-0.1,1,0.1,1.1,0c0.6-0.1,0.3-0.6,0.9-0.8  c-0.1,0-0.3-0.2,0-0.5c0.4-0.2,0.6,0,0.4,0.2c-0.1,0.1-0.1,0.1-0.1,0c-0.1,0.1-0.2,0.2,0,0.2v-0.1c0.2,0,0.7-0.4,0.7-0.2  c0.2-0.3,0-0.2-0.2-0.1c0.5-0.2,0.7-0.5,1.2-0.7c-0.1,0-0.2,0-0.2-0.1c0.7-0.4,0.2-0.4,0.5-0.7c0.3-0.1,0.1,0.3,0.5-0.1  c0.3-0.2,0.2,0.1,0.2,0.3c0.3-0.5,0.8-0.6,1-0.7l-0.1,0.2c0.1-0.1,0.2-0.2,0.3-0.3l-0.2,0c0.1-0.1,0.2-0.2,0.3-0.1  c0-0.2-0.3-0.1-0.2-0.5c0.2-0.1,0.3-0.5,0.6-0.4c-0.5,0.4,0.2,0.1-0.1,0.5c0.1-0.1,0.1-0.2,0.3-0.3c0,0,0,0,0,0.1  c0.6-0.3,0-0.4,0.4-0.9c0,0.1,0.3,0.1,0.3,0c-0.2,0.2-0.2-0.1-0.2-0.3c0.4-0.2,0.2-0.4,0.4-0.5l-0.2,0.1c0-0.1,0.1-0.3,0.3-0.5  c0.1,0-0.1,0.2,0,0.2c0-0.4,0.6-0.4,0.8-0.8c0.2-0.1,0.2,0.1,0.4,0c0.2-0.5,0.5-0.3,0.7-0.8c-0.2,0-0.2,0.1-0.1-0.3l-0.4,0.7  l0.1-0.6c-0.2,0.2-0.2,0.5-0.4,0.6c0-0.3,0.1-0.2-0.1-0.2c0.4-0.1,0.3-0.6,0.7-0.8l0.3,0.3c0.5-0.3,0.5-1,1-1.5l-0.2,0.2  c-0.1-0.2,0.3-0.4,0.3-0.7c0.1,0.1,0.2,0,0.4,0c-0.1-0.1,0.3-0.5,0.1-0.7l0.4-0.2c0.4-0.5,0.1-0.8,0.4-1.3c0,0.2,0.3,0.1,0.1,0.5  c0.1-0.2,0.2-0.3,0.2-0.4c0.1-0.1,0.1-0.6,0.3-0.7c0-0.1-0.1-0.2,0-0.4c0,0,0.1,0,0.1,0c-0.1,0,0.1-0.4-0.1-0.3  c0.7-0.3,0.8-1.5,1.4-1.9c0.1-0.4,0.3-0.9,0.4-1.3c0,0,0.1,0,0,0.1c0.3-0.5-0.3-0.5,0-1c0.3-0.3,0,0.4,0.2,0.2  c0.5,0,0.1-0.8,0.5-1.2l0,0.1C30.8,7.3,30.5,6.8,30.5,6.2z M13,6.2c0-0.1,0-0.2-0.1-0.2C12.9,6,12.9,6.1,13,6.2L13,6.2z M13.1,7  c0-0.1,0-0.2-0.1-0.4c0.1,0,0.1,0,0.2,0.1C13.2,6.7,13.2,6.9,13.1,7z M14.2,4.9c0.1,0.1,0,0.2,0,0.2C14.2,5.1,14.2,5,14.2,4.9  l-0.1,0C14.1,4.9,14.2,4.9,14.2,4.9z"/></svg>