<?xml version="1.0" ?><svg id="Layer_1" style="enable-background:new 0 0 31.9 22.9;" version="1.1" viewBox="0 0 31.9 22.9" xml:space="preserve" xmlns="http://www.w3.org/2000/svg" xmlns:xlink="http://www.w3.org/1999/xlink"><style type="text/css">
	.st0{fill:#ED1F24;}
</style><path class="st0" d="M17.5,15.9c-0.1-0.1-0.2-0.2-0.2-0.3c0,0,0-0.2,0.1-0.1c0,0,0,0.1,0,0.1l0-0.1C17.6,15.8,17.4,15.7,17.5,15.9  c0-0.2,0-0.4,0.1-0.4c0.2,0.2-0.1,0.2,0.1,0.3l-0.2,0c0.3,0.3-0.1,0,0.2,0.3c0.2,0,0.1-0.2,0.3-0.3c0-0.1-0.1-0.2-0.2-0.3  c0.1-0.3,0.5,0.4,0.5,0c-0.1-0.2-0.2-0.4,0-0.4l0.1,0.3c0.2-0.1-0.1-0.4,0.1-0.3c0,0.1-0.1,0.2,0,0.2c0.2,0.1,0-0.2,0.1-0.2l0.2,0.2  c0.1-0.1,0.2-0.4,0.3-0.5c0,0.1,0,0.2,0.1,0.2c0.1-0.2,0.5-0.3,0.8-0.3l0-0.2c0,0,0.1,0.1,0.1,0.1c0.1,0-0.1-0.1-0.1-0.2  c0,0,0.1,0.1,0.1,0.1c0-0.2,0.2-0.6,0.5-0.5l0,0.1c0.2,0-0.1-0.5,0.1-0.4l0,0c0.3-0.1,0.5-0.4,0.8-0.3c-0.1-0.1,0-0.1,0.1-0.2  c0.1,0,0.2-0.1,0.1-0.3c0.4,0,0.4,0.1,0.8,0c0.1-0.1-0.1-0.3-0.1-0.3l0.2,0.1c0,0-0.1-0.2-0.1-0.2l0.4,0.1l0-0.1c-0.1,0-0.2,0-0.3,0  c0-0.1,0.6-0.2,0.8-0.2c0,0,0.1-0.3,0.1-0.3c0.1,0,0.1,0.1,0.2,0.1c-0.1-0.2,0.4,0,0.3-0.2c-0.1,0-0.2,0-0.3,0  c0.3,0,0.5-0.1,0.6-0.2l-0.1-0.1l0.3,0c-0.3-0.2-0.8-0.4-1.1-0.7c0,0.1-0.4,0.2-0.5,0.1l0.3-0.1c-0.3,0,0,0.1-0.4,0.1  c-0.1-0.1,0.3-0.2,0.4-0.1l-0.3-0.1c0.1,0,0.2,0,0.3-0.1c-0.2,0,0-0.3-0.4-0.2l0.1,0c-0.4-0.2-0.6-0.3-0.9-0.5  c-0.2,0.2-0.2,0-0.4,0.1c-0.1-0.2-0.1-0.4-0.3-0.5c-0.2,0-0.1,0.1-0.2,0.2c0.1-0.2,0-0.2,0.1-0.3C21,9.4,21,9.4,20.7,9.4  c0,0.1,0,0.1-0.1,0.2c-0.1,0,0-0.1,0-0.2l0,0c-0.4,0.1-0.2-0.8-0.6-0.6l0,0l-0.3,0c-0.1-0.1,0.1-0.1,0.1-0.2  c-0.4,0.1-0.3-0.3-0.6-0.2c0.2-0.6-0.5-0.3-0.5-0.7l-0.1,0.1c-0.1,0.1,0-0.1,0-0.1c-0.1,0.1,0,0.1-0.1,0.2c-0.5-0.1-0.7-0.7-1-1.1  c-0.1-0.1-0.5,0.5-0.5,0.1l0.2-0.2c-0.5,0-0.5-0.3-1.2-0.5c0,0,0.1-0.1,0.1-0.1c0-0.3-0.4-0.3-0.4-0.1c-0.1-0.1,0-0.2,0-0.3  c-0.1-0.2-0.3,0.1-0.3-0.2c0,0,0,0,0.1-0.1c-0.1,0.1-0.3-0.3-0.3,0c-0.2-0.3-0.3-0.1-0.5-0.4c0,0.3-0.4-0.4-0.2,0.1  c-0.1-0.5-0.5-0.7-0.5-0.5c0-0.1-0.2-0.3-0.2-0.5c-0.1-0.1-0.2-0.1,0,0.3c-0.2-0.4-0.3-0.4-0.4-0.4c0.1,0.3,0.2,0.6-0.1,0.2  c0.2,0.8,0.3,1.4,0.4,1.9c-0.3-0.4,0-0.5-0.4-0.9c0.1,0.6,0.4,1.1,0.3,1.4c0,0.1-0.1-0.2-0.2-0.2c0.1,0.5,0,0.8,0.2,1.2  c0,0-0.1-0.1-0.1-0.1c0,0.1,0,0.2,0.1,0.2l0-0.1C13.6,7.7,13.9,8,14,8c-0.4-0.1-0.1,0.3-0.7,0.1c0,0,0.1,0.1,0.2,0.1  c0,0-0.1,0.1-0.2,0c0.1,0.2,0.2,0.1,0.2,0.2c-0.1,0-0.1,0-0.2,0c0.1,0.1,0.3,0.1,0.2,0.3c0,0-0.1,0-0.1,0c0,0.2,0.4,0.3,0.2,0.6  c-0.3-0.1-0.1,0.1-0.4,0.1l0.1,0.1l0.1,0c0,0.1,0.2,0.2,0.1,0.3l-0.1-0.1l0.1,0.2l0.1-0.1c0.1,0.1,0.4,0,0.3,0.1c0,0,0,0.1-0.2,0.2  l0,0C13.9,10,14,10,14,10.1c-0.1,0-0.3,0-0.4,0c0.2,0,0.1,0.2,0.3,0.3c-0.1,0-0.2,0-0.2,0l0.2,0c-0.1,0-0.1,0.1-0.2,0  c0,0.1,0.4,0,0.2,0.1c0,0,0,0-0.1,0c-0.1,0.2,0.1,0.3,0,0.5c-0.3,0-0.1-0.1-0.3-0.1c0.1,0.2,0.3,0.5,0.3,0.7l0,0  c0.4,0-0.2,0.2,0,0.3c0,0-0.2,0-0.2,0c-0.1,0.1,0.1,0.3,0.2,0.5l-0.1,0c-0.1,0.1-0.1,0.2-0.1,0.3c0.1,0,0.1,0.1,0.2,0  c-0.6,0.3,0.3,0.6-0.2,0.8c0,0-0.1-0.1-0.1,0l0.1,0.2c0.2,0,0.1,0,0.2-0.1c0.1,0,0.2,0.1,0.2,0.1c-0.1-0.1-0.3,0-0.4,0  c0.1,0,0.1,0,0.2,0c-0.3,0.1,0.3,0,0.1,0.2L14,14c0,0.1,0.2,0.1,0.1,0.2c-0.2,0-0.1-0.1-0.3-0.1c0,0.1,0.4,0.2,0.2,0.3  c-0.1,0-0.1-0.1-0.1-0.1c-0.2,0.1-0.2,0.1-0.2,0.2l0,0l-0.1,0.2l0.1,0c0.5,0.1,0.1,0.2,0.4,0.4c-0.3-0.1-0.2,0-0.4,0  c-0.1,0-0.1,0.1-0.2,0.1c0.2,0.1-0.1,0.1,0.1,0.2c-0.1,0,0,0.1-0.2,0.1c0.1,0.1,0.1,0,0.2,0c0.2,0.1-0.3,0.3,0,0.5  c0.1,0.2,0.4,0.2,0.5,0.4c-0.1,0.1-0.3,0-0.3,0c-0.1,0.1-0.1,0.2,0,0.2c-0.1,0-0.1,0-0.2,0c0,0.1,0.3,0,0.2,0.1  c-0.1,0-0.2,0-0.3-0.1c0.1,0.1,0.2,0.2,0.3,0.2c-0.1,0-0.2,0-0.3-0.1c0,0.1,0.1,0.1,0.2,0.2c-0.1-0.1,0.1-0.1,0.2-0.1l0,0  c0,0,0,0.1,0,0.1c0,0-0.1,0-0.1,0c0,0,0.1,0.1,0.1,0.1l0,0c0,0,0,0.1,0,0.1c-0.1,0-0.2,0-0.4,0C13.8,17,13.7,17,14,17c0,0,0,0,0,0  c0,0-0.1,0.1-0.2,0.1c0.1,0-0.1,0.1,0.1,0.1c0.1,0,0.2-0.1,0.1-0.2c0,0,0.1,0,0.1,0.1l0,0.1c0.2,0.3,0.3,0.6,0.6,0.7l0-0.3l0.1,0.1  l-0.1,0.1c0.1,0.1,0.1,0,0.1-0.1c0.1,0.1,0.1,0.1,0.1,0.1l-0.1-0.3c0.1,0.1,0.1,0.3,0.2,0.3c0-0.2-0.2-0.2-0.2-0.4  c0.1,0.1,0.2,0.2,0.2,0.1c0.1,0.1,0.1,0.1,0.1,0.2c0-0.1,0.1-0.1,0-0.3c0.2,0.1,0.2-0.2,0.3,0.1c0-0.1,0-0.3,0-0.3  c0.1,0.4,0.2-0.1,0.4,0.3c-0.1-0.3,0.2-0.3,0.2-0.5c0,0,0,0.1,0,0.1c0.1,0,0.2,0.1,0.2,0.1c-0.2-0.2-0.1-0.4-0.1-0.6  c0.2,0.2,0.1,0.3,0.3,0.5c-0.1-0.2,0-0.3-0.1-0.4c0.2,0.1,0.1,0,0.3,0.2c-0.2-0.3,0-0.1,0-0.3c0.2,0.1,0.2,0.3,0.3,0.1  c0.1,0.1,0.1,0.2,0.1,0.2c0.1-0.1-0.1-0.3-0.2-0.4c0.1-0.1,0.2,0.1,0.3,0.2c0-0.1,0-0.4,0-0.4c0,0,0,0,0.1,0.1  C17.2,16.1,17.5,16.1,17.5,15.9C17.4,15.9,17.5,15.9,17.5,15.9z M19,14.7C19,14.7,19.1,14.7,19,14.7L19,14.7  C19.1,14.7,19,14.7,19,14.7z M19.2,14.6c0-0.1-0.1-0.1-0.1-0.1C19.1,14.5,19.2,14.5,19.2,14.6C19.3,14.5,19.2,14.6,19.2,14.6z   M14,17C14,17,14,17,14,17C14,17,14,17,14,17C14,17,14,17,14,17z M17.1,14.6L17.1,14.6c-0.6-0.3-0.1,0.8-0.7,0.5c0,0,0.1,0,0.1,0.1  c-0.5,0-0.6,0.7-1.2,0.6c-0.1,0-0.1,0.2,0,0.3L15.1,16l0,0.3c0,0.3-0.6-0.3-0.6,0.1l0.1,0.1c-0.1,0-0.2,0.2-0.2,0.1  c0,0,0.1,0.1,0,0.1l-0.1-0.1l-0.1,0.3c-0.1,0-0.2-0.1-0.2-0.2c0-0.1-0.2-0.2-0.2-0.3l0.3,0L14,16.3c0.1,0,0.3,0,0.3,0  c0.2-0.1-0.1-0.1,0.1-0.1c0,0,0,0,0.1,0l-0.1-0.1c0.1,0,0.2,0,0.2,0c0.2-0.1-0.2-0.2,0-0.3l0,0c-0.1-0.2-0.2,0-0.5-0.2l0.6-0.1  l-0.2,0c0,0,0-0.1,0.1-0.1c-0.2-0.1-0.1,0-0.2,0c0.2-0.1-0.1-0.3,0.3-0.3c-0.2,0-0.1,0.1-0.3,0c0.4,0-0.1-0.1,0.1-0.2  c0.2,0,0.1,0.1,0.3,0c-0.3-0.1,0.1-0.2,0-0.3c-0.1,0-0.1,0-0.1,0c0.1,0,0.1,0,0.1,0c0,0,0.1,0,0.1,0c0,0-0.2,0-0.3,0  c-0.1-0.1,0-0.2-0.1-0.3c0.1,0,0.1-0.2,0.2-0.4l0,0c-0.3,0-0.2-0.2-0.3-0.2c0.2,0,0.2,0,0.3,0.1l0-0.1c-0.1,0-0.1,0-0.2-0.1l0.2,0  c0-0.1-0.2-0.2-0.1-0.4c-0.2,0-0.5,0.1-0.7,0c0.1,0,0.3,0,0.3,0c0,0-0.1,0,0-0.1l0.2,0.1c0.1-0.1-0.1,0-0.1-0.1c0.1,0,0.1,0,0.2,0  c0,0-0.1,0,0,0.1c0-0.1,0.1-0.1,0.2-0.2c-0.1,0-0.2,0-0.2,0c0-0.1,0.2,0,0.3-0.1c-0.1,0,0-0.1-0.2-0.1c0,0,0.1,0,0.2-0.1  c-0.1-0.1,0-0.3-0.3-0.2l0,0l0,0c-0.2-0.2,0.1-0.4,0-0.6l0.1,0c-0.1-0.1,0-0.3-0.2-0.3c0,0,0.1-0.1,0.2-0.1c-0.1-0.1-0.1-0.1,0-0.2  c0.1,0.1,0.1,0,0.1,0.1c0.1-0.1,0.2-0.1,0-0.3c0.2,0,0.2-0.1,0.2-0.1L14.7,11c0-0.1,0-0.1,0-0.2l0.2,0c0.3-0.2-0.5-0.4,0-0.6  c-0.2-0.1-0.1,0.1-0.3,0.1c0-0.1,0.4-0.2,0.4-0.3c0.1-0.1-0.4-0.1-0.3-0.3c-0.1,0-0.3,0-0.4-0.1c0-0.1,0.4-0.1,0.4-0.1  c0,0,0,0-0.1,0c0,0,0.1,0.1,0.2,0l-0.1,0c0.1-0.1,0.1-0.2,0.2-0.2c-0.1-0.1-0.1,0-0.2,0c0.1-0.1,0-0.2,0.1-0.4c0,0-0.2,0-0.2,0  C14.9,9,14.6,9.1,14.5,9c0.1-0.1,0.3,0,0.2-0.1c0.1-0.1,0.2,0,0.3,0c-0.2-0.1,0.1-0.2,0.1-0.3l0.1,0.1c0,0,0-0.1,0-0.1l-0.2,0  c0,0,0-0.1,0.1-0.1c-0.1,0-0.3,0-0.5-0.1c0.1-0.1-0.1-0.2,0.1-0.2c-0.1,0.2,0.2,0,0.3,0.1c0,0,0-0.1,0-0.1c0,0,0,0,0.1,0  c0.2-0.1-0.3-0.1-0.3-0.2c0.1,0,0.3,0,0.2,0c0,0-0.2,0-0.3-0.1C14.9,8,14.7,8,14.8,8l0,0c-0.1,0-0.1-0.1-0.2-0.1  c0.1,0,0.1,0.1,0.1,0.1c-0.2-0.1,0.2,0,0.1-0.1c0.1,0,0.3,0.1,0.3,0.2c-0.2-0.2,0.2,0.1,0,0c-0.2-0.1-0.1-0.1-0.3-0.3  c0,0,0.1,0.2,0.1,0.2c0,0-0.3-0.3-0.3-0.3c0,0,0.1,0.2,0.1,0.2c-0.1-0.1-0.1-0.1-0.2-0.2c0.3,0.1-0.2-0.3,0-0.2L15,7.8  c0.2,0.2-0.2-0.4-0.1-0.3l-0.1-0.1c-0.2-0.2,0-0.1-0.1-0.2c0.1,0.2,0.2,0.3,0.3,0.4c-0.1-0.2,0,0-0.3-0.5l0.2,0.3  c0,0-0.1-0.2-0.2-0.4c-0.1-0.2-0.2-0.4-0.1-0.3c0.1,0.3,0.2,0.5,0.3,0.7c0,0,0.1,0.1,0-0.1c0.1,0.2-0.1-0.3,0,0  c0-0.1-0.1-0.4-0.1-0.3c0,0.1,0,0.1,0,0.1c-0.1-0.1,0-0.1-0.1-0.4C14.9,6.9,15,6.9,15,6.9c0.1,0,0.1,0,0.2,0.3c0,0,0.1,0,0.2,0  c0,0,0,0.1,0,0.1c0.1,0.2,0.1-0.5,0.2-0.2c0,0.3-0.1,0.1-0.1,0.2c-0.1,0.5,0.1,0,0.1,0.3l0,0c0,0.2,0.1-0.1,0.3,0c0,0,0,0,0,0.1  c0.2-0.2,0.4-0.1,0.6-0.1c-0.1,0.1-0.1,0-0.2,0.2c0.1,0,0.2-0.3,0.3-0.2c0,0.1,0,0.2-0.1,0.4L16.2,8c-0.1,0.3,0.1,0.1,0.2,0.1  l-0.1,0.1c0.2,0.1,0.3-0.2,0.5-0.1l0-0.1c0.2-0.2,0,0.2,0.2,0.1l-0.1,0.3c0.1,0,0.4-0.1,0.5-0.1c-0.2,0.1-0.4,0.2-0.5,0.2  c0.1,0,0.2,0.1,0.3,0c0,0-0.1,0-0.1,0c0.2-0.1,0.4-0.2,0.5-0.1c-0.3,0.5,0.2,0.3,0,0.7c0.3,0,0.3,0.3,0.6,0.5c0.2-0.4,0.1,0,0.3-0.4  c0.1,0,0.1,0,0.1,0.1c0,0,0,0,0,0l0,0l0,0.3c0,0.1-0.1,0-0.2,0.1c0.1,0.1-0.1,0.2,0,0.3c0.1-0.1,0.2-0.2,0.2-0.1l0-0.2  c0.3-0.1-0.1,0.4,0.2,0.3l-0.1,0.1c0.1,0,0.3,0.2,0.6,0c0,0.1-0.1,0.2-0.1,0.2c0.2,0.2,0.7,0,0.7,0.3l-0.1,0.1c0.1,0,0.2-0.1,0.2,0  c0,0-0.1,0.1-0.1,0.1c0,0,0.2-0.1,0.2,0L20,10.9c0.1,0.3,0.5,0,0.7,0c-0.2,0.3-0.1,0.5-0.1,0.5l0,0c0,0,0.3-0.1,0.5-0.1  c-0.4,0.2,0,0.2-0.3,0.2c0.1,0,0.4,0,0.5,0c0,0,0,0,0.1,0c0.1,0,0.1,0-0.2,0l0,0c-0.5,0-0.4,0-0.4,0l0.6,0.1c-0.5,0-0.4,0-0.4,0.1  c0,0,0,0.1-0.2,0c0.1,0.1,0.1,0.1,0.1,0.1l-0.2-0.1c-0.1,0-0.1,0-0.1,0l-0.1-0.1c0,0,0.2,0.6,0.2,0.6l-0.2-0.2  c-0.2,0.1-0.5,0-0.5,0.4c0,0-0.1-0.1,0-0.1c-0.1,0-0.4,0-0.2,0.4c-0.2-0.2-0.2,0.1-0.2,0.3l-0.1-0.2c0.1,0.3,0.1,0.3,0,0.5  c0,0-0.1-0.1-0.1-0.1c-0.1,0,0,0.2-0.1,0.2l0-0.1c-0.1,0-0.1,0.1,0,0.3c0,0.1-0.2,0.1-0.3-0.1c0.1,0.1,0.1,0.3,0,0.3  c0-0.1-0.1-0.1-0.1-0.1c-0.2,0-0.1,0.4-0.3,0.2c0-0.1-0.1-0.1-0.1-0.1c0.1-0.1,0.2-0.1,0.2-0.1c-0.1-0.2-0.2-0.1-0.3-0.4  c0,0.2,0,0.5-0.1,0.5c0,0,0,0,0,0l0,0c0,0,0,0,0,0.1c0,0-0.1,0-0.1,0c-0.1-0.1-0.2,0-0.2,0c0.1,0.2,0,0.2,0.2,0.3c0,0,0,0,0-0.1  c0,0,0,0,0,0l0,0c0,0,0.1-0.1,0.1-0.1c0,0.1,0,0.2-0.1,0.2c0,0.1,0.1,0.3,0.1,0.3c-0.2-0.2-0.4-0.2-0.6-0.4  c-0.1,0.2-0.3,0.3-0.2,0.7c0,0.1-0.1-0.1-0.2-0.1c0,0,0-0.1,0-0.1c0,0.1-0.2,0.2-0.1,0.4C17.2,14.7,17.3,14.5,17.1,14.6z M18.1,13.7  C18.1,13.7,18.1,13.6,18.1,13.7C18.1,13.6,18.1,13.6,18.1,13.7C18.1,13.6,18.1,13.6,18.1,13.7L18.1,13.7z M31.9,9.5  c0-0.1-0.1-0.2-0.1-0.3l-0.2,0.1c0-0.1,0-0.2,0.1-0.2C31.6,9,31.5,9.2,31.3,9c0.1-0.2-0.1-0.5,0.1-0.5c0,0.5,0.2-0.1,0.3,0.3  c0-0.1,0-0.2,0-0.3c0,0,0.1,0,0.1,0c0.2-0.5-0.3-0.2-0.3-0.7c0.1,0,0.2-0.1,0.2-0.2c0,0.2-0.2,0.1-0.3-0.1c0.1-0.3-0.1-0.3-0.1-0.5  l0,0.2C31,7.2,31,7,30.9,6.8C31,6.8,31,7,31.1,6.9C30.8,6.7,31.2,6.4,31,6c0.1-0.2,0.2-0.1,0.3-0.2C31,5.5,31.4,5.4,31.2,5  C31,5.2,31,5.2,30.8,4.9l0.3,0.6l-0.3-0.4c0,0.2,0.2,0.4,0.2,0.5c-0.2-0.2-0.1-0.2-0.3,0c0.2-0.3-0.3-0.5-0.2-0.8l0.4-0.1  C31,4.2,30.6,4,30.4,3.3l0,0.2c-0.2,0-0.2-0.4-0.4-0.6c0.1-0.1,0.1-0.2,0.1-0.3c-0.1,0.1-0.3-0.5-0.6-0.3c0,0-0.1-0.4-0.1-0.4  c-0.4-0.5-0.8-0.1-1.2-0.4c0.2-0.1,0-0.3,0.4-0.2c-0.2-0.1-0.3-0.2-0.4-0.1c-0.1-0.1-0.5,0-0.7-0.2c-0.1,0-0.2,0.2-0.3,0.1  c0,0,0-0.1,0-0.1c0,0.1-0.3,0-0.2,0.2c-0.5-0.6-1.4-0.1-1.8-0.5c-0.3,0-0.8,0.1-1.1,0.1c0,0,0-0.1,0.1-0.1c-0.4-0.2-0.3,0.4-0.8,0.2  C23.5,0.8,24,1,23.8,0.9c-0.1-0.5-0.6,0-0.9-0.3l0.1,0c-0.2-0.2-0.6,0.2-1,0.1c0,0,0,0,0-0.1c-0.3,0.2-0.8,0.3-1.2,0.4  c0.1-0.2,0.2-0.1,0.1-0.3c-0.2,0,0,0.3-0.3,0.4c-0.1-0.1-0.4-0.2-0.4-0.4l0.3,0c-0.2-0.3-0.4,0-0.6,0l0-0.1c-0.5,0-0.5,0.3-1.1,0.3  l0.1,0.1c-0.3,0.3-0.2-0.2-0.6,0l-0.1-0.3c-0.2,0.1-0.7,0.3-1.1,0.3c0.2-0.2,0.6-0.3,0.9-0.5c-0.2,0-0.7,0-0.8,0.2  c0.1,0,0.2-0.1,0.3-0.1C17.3,0.8,17,1,16.6,1c0.1-0.6-1-0.1-1.3-0.6c-0.7,0.2-1.4-0.1-2.2,0c0.3,0.4-0.2,0-0.2,0.5  c-0.2,0-0.2,0-0.3,0c0,0,0,0,0,0l0,0l-0.6-0.3c-0.1-0.1,0.2-0.1,0.2-0.2c-0.4,0-0.2-0.2-0.4-0.3c0.1,0.2-0.1,0.2-0.4,0.2l0.3,0.2  c-0.6,0.3-0.5-0.4-1.1-0.1l0.2-0.1c-0.3,0.1-1.1,0-1.4,0.4c-0.1-0.1-0.1-0.2,0-0.2c-0.7,0-1.6,0.4-2.1,0.2l0.1-0.1  C7.3,0.4,7.2,0.6,7,0.5c0,0,0-0.1,0-0.1c-0.1,0-0.3,0.2-0.5,0.1l0.1-0.1C5.9,0.3,5.6,0.7,5,0.9c0-0.3-0.7-0.3-1-0.3l0,0  C2.9,0.9,2.4,1.7,2,2.4C1.7,2.6,1.4,3,1.2,3.5C1.1,3.7,1.1,4,1,4.2c0,0.2-0.1,0.4-0.2,0.6C0.9,4.7,1.1,4.9,1.1,5  C1,5.2,1.2,5.5,0.9,5.4l0-0.1C0.6,5.5,0.7,5.8,0.6,6.1L1,6.2c-0.7,0.7-0.1,2-0.7,2.3c0.1,0.2,0.1,0.4,0.1,0.6l-0.2,0  c-0.1,0.5-0.1,0.7-0.1,1.4L0,10.3c0,0.4,0.6,0.5,0.6,0.8l-0.3,0.1c0,0.6-0.3,1.2,0,1.8c0,0-0.1,0-0.2-0.1c0,0.3-0.2,1.1,0.3,1  c-0.3,0,0,0.6,0.2,0.9l-0.2,0c0.3,0.3,0.4,0.3,0.5,0.6c0,0.1-0.1,0.1-0.1,0c0,0.2,0.2,0.2,0.2,0.5l-0.1-0.1c0,0.3,0.1,0.3,0.3,0.4  c0.1,0.2,0,0.6-0.1,0.7c0.1,0,0.3,0.2,0.3,0.4c-0.1,0-0.1,0-0.1-0.1c0,0.5,0.4,0.7,0.2,1.1c-0.1,0-0.1,0.1-0.1,0.1  C1,18.1,1,17.8,1,17.8c-0.2,0-0.2,0.4-0.5,0.2c0.2,0.2,0.6,0.6,0.6,1c0,0,0,0-0.1,0.1l0,0c0,0.1,0,0.1,0.1,0.2c0,0.1,0,0.2,0,0.3  c-0.1,0.1,0.1,0.4,0.1,0.6C1.5,20,1.5,20.3,1.6,20c0,0,0,0-0.1-0.1c0,0,0-0.1,0-0.1l0,0c0-0.1-0.1-0.3-0.2-0.4  c0.1,0.1,0.3,0.2,0.2,0.4c0.2,0,0.3,0.1,0.4,0.1c-0.2,0.3-0.1,0.9-0.1,1c0.4,0.5,1.1,1,1.6,0.8c0.2,0,0.1,0.2,0.1,0.3  c-0.1,0-0.2-0.1-0.3,0c0.3,0.1,0.9,0.3,1.1,0.1c0.4,0.2-0.3,0.2,0.3,0.3l-0.1,0.1c0.5,0.3,1,0.2,1.4,0c0.4-0.2,0.8-0.3,1.4,0  c-0.1,0-0.1-0.1-0.1-0.1c1.2,0.3,2.5-0.2,3.8,0.3c0.3,0.1,0.4-0.1,0.6-0.2l0.1,0.2l0.4-0.3c0.5-0.2,0.9,0.6,1.5,0.2l-0.1-0.2  c0.2,0,0.7-0.1,0.7,0.1c0,0,0.1-0.2,0.2-0.1l0,0.1l0.6-0.2c0.4,0.1-0.1,0.5,0.6,0.5c0.2,0,0.7-0.3,0.6-0.4c-0.1,0-0.2-0.1-0.3-0.2  l0.2-0.1c0-0.1,0.1-0.3,0.1-0.4c0,0,0,0,0.1,0l0.1-0.3l-0.2,0.1c0-0.1-0.1-0.3-0.4-0.4l-0.4,0.2l-0.1-0.2l0.3,0  c-0.2-0.2-0.3,0-0.4,0.1c0-0.1-0.1-0.2-0.2-0.2l-0.4,0.3c0-0.1,0.2-0.3-0.1-0.3c-0.2,0.2,0.2,0.3-0.1,0.4c-0.2-0.2-0.1-0.3-0.3-0.2  c0-0.1,0-0.1,0.1-0.2c-0.2,0.1-0.5,0-0.6,0.2c-0.2-0.2-0.6,0-0.6-0.3c-0.1,0.1-0.3,0.3-0.5,0.3c0.3-0.4-0.6,0-0.5-0.5  c-0.2,0.3-0.8,0.1-1.3,0.3c0,0,0.1-0.1,0.1-0.1c-0.2,0-0.3-0.1-0.4-0.2c0,0.3-0.4,0.4-0.6,0.5c-0.3-0.3,0.2-0.3,0.1-0.6  c0,0.2-0.5,0.2-0.4,0.4c-0.2-0.2-0.2-0.1-0.3-0.3c0,0.4-0.2,0.1-0.4,0.3c-0.3-0.2-0.1-0.3-0.4-0.2c-0.2-0.1,0.2-0.2,0.2-0.2  c-0.4,0-0.2,0.3-0.3,0.4C7.8,21.3,8,21,7.9,20.9c-0.3,0.1-0.5,0.3-0.7,0.3c0,0-0.1-0.1,0-0.1c-0.3,0.2-0.8,0-1.2,0.3c0,0,0,0,0-0.1  c0,0.1,0.1,0.3,0,0.4c-0.2,0-0.3,0.2-0.4,0c0.1,0,0.1-0.1,0.2-0.1l-0.2,0.1c-0.1-0.3,0.2-0.1,0.2-0.3c-0.3,0.1-0.7,0.3-0.9,0.2  c0-0.3,0.5,0,0.3-0.3l0.3,0.1c-0.2-0.4,0.2,0,0-0.4c-0.4-0.1-0.5,0.1-0.9-0.1c-0.1,0.1,0,0.2-0.2,0.3c-0.7,0-0.2-0.7-0.7-0.6  c-0.2,0.1-0.4,0.3-0.5,0l0.3-0.1c-0.2-0.3-0.5,0.1-0.6-0.3c0.1,0,0.3,0.2,0.2,0.1c0-0.3-0.2,0-0.4-0.2l0.2-0.2  c-0.2-0.3-0.6-0.7-0.7-1.2c0.1,0,0.2,0.1,0.2-0.1c-0.3-0.6-0.3-1.5-0.2-2.2l-0.3-0.2C2.2,16,2.3,16,2.3,16c0.1-0.3-0.1,0-0.2-0.1  c0-0.1,0.1-0.2,0.2-0.1C2,15.4,1.7,14.5,1.9,14L2,14.1c0.1-0.4-0.5-0.4-0.3-0.8l0,0.1C1.8,12.5,1.6,11.6,2,11  c-0.3-0.1,0.2-0.8-0.3-0.9C2,9.6,2,9.7,2.2,9.1c0-0.2-0.3-0.3-0.3-0.5l0.2,0L2,8.3l0.3-0.1l0-0.2c0,0.1-0.1,0.2-0.2,0.1  C2,7.7,2.3,7.3,2.5,7.3L2.4,6.5c0.1,0,0.1,0.2,0.1,0.3c-0.2-0.4,0.3,0,0.1-0.4c-0.1,0-0.1,0-0.2-0.1c0.2-0.2,0.2-0.6,0.2-0.9  l0.1,0.1c0.1-0.3,0.1-0.6,0.1-0.9C3,4.3,3,4.1,3.1,3.8C3,4,2.7,3.8,2.8,3.7l0.2,0C2.9,3.6,2.9,3.8,2.8,3.6c0.1-0.2,0.3,0,0.3,0.1  c0,0,0-0.2,0-0.2c0.1,0,0.1,0.1,0.1,0.1C3.2,3.4,3.7,3.5,3.6,3.2l0.1,0C3.9,3,4.1,2.8,4.4,2.6C4.3,2.4,4.5,2.4,4.6,2.2  c0.3,0,0.7,0.1,1.1,0.1C6,2.2,5.8,2.1,6,2c0,0.2,0.5,0.2,0.3,0.3C6.8,2.2,6.9,2.2,7.7,2C7.6,1.9,7.5,1.9,7.5,1.8  c0.1,0,0.3,0.1,0.3,0.2l0,0c0.8-0.3,1.9,0.5,2.5,0.1l0,0l0.7-0.2c0.3,0-0.2,0.1,0,0.3c0.7-0.3,1.1,0,1.7-0.2  c0.5,0.6,1.6-0.1,2.2,0.3l0-0.1C15,2,15.1,2.2,15.2,2.3c0-0.1-0.2-0.1-0.1-0.2c1.4-0.2,2.8,0.2,4.2,0.3c0.5,0,0.3-0.7,0.9-0.4  L20,2.3c1-0.3,2.1,0.1,3.1-0.2c-0.1,0.1-0.1,0.1-0.2,0.1c0.2,0.2,0.8,0,0.8-0.1c0.2,0,0,0.1,0.1,0.2c0.2,0.1,0.5-0.2,0.6,0  c0,0-0.1,0.1-0.1,0.1c0.1-0.1,0.6,0.1,0.5-0.2c0.4,0.1,0.7-0.1,1,0.1c0.2-0.2,0.6,0.1,0.7-0.2c0,0.3,0.5,0.3,0.7,0.2  c-0.1,0.1,0.1,0.1,0,0.3c0.2,0.1,0.4,0.1,0.4-0.1c0.1,0.3,0.3,0.3,0.4,0.3c0.2,0,0.3,0.1,0.2,0.4c0.5,0.3,0.8,0.8,1.1,1.5  c-0.3,0.1-0.2-0.8-0.6-0.6c0.3,0.5,0.7,0.9,0.7,1.5c0,0.2-0.2-0.1-0.2-0.1c0.3,0.6,0.2,1.3,0.5,1.8c0,0-0.1-0.1-0.1-0.1  c0,0.1,0,0.3,0.1,0.2l-0.1-0.1c0.2-0.2,0.5,0.4,0.6,0.4c-0.5-0.2-0.1,0.6-0.6,0.3c0,0.1,0.1,0.2,0.2,0.1c0,0.1-0.1,0.2-0.2,0.1  c0.1,0.4,0.3,0.3,0.3,0.6C30.1,9.1,30,9,30,8.9c0.2,0.2,0.3,0.4,0.3,0.7c0,0-0.1,0-0.1-0.1c0,0.6,0.4,0.9,0.3,1.6  c-0.3-0.2-0.1,0.2-0.4,0.2l0.1,0.3l0.1-0.1c0,0.3,0.2,0.6,0.1,0.8l-0.1-0.2l0,0.5l0.1-0.3c0.1,0.3,0.4,0,0.3,0.4  c0-0.1,0,0.3-0.2,0.4l0,0c0.1,0.1,0.2,0.3,0.1,0.5c-0.1,0.1-0.3-0.1-0.4,0c0.2,0.2,0,0.7,0.3,0.9c-0.1-0.1-0.2-0.1-0.2-0.1l0.2,0.1  c-0.1,0.1-0.1,0.1-0.2,0.1c-0.1,0.4,0.4-0.1,0.2,0.4c0,0,0,0-0.1-0.1c-0.1,0.5,0,0.9-0.1,1.4c-0.3,0.1,0-0.4-0.3-0.3  c0,0.6,0.1,1.4-0.1,1.9l0.1-0.1c0.4,0.2-0.3,0.4-0.2,0.8c0-0.1-0.2-0.1-0.2-0.1c-0.2,0.4-0.1,0.8-0.3,1.4l-0.1-0.1  c-0.2,0.2-0.4,0.5-0.5,0.6c0,0.1-0.1,0.2,0.1,0.3c-0.5,0.1-0.7,0.3-1,0.5c-0.3,0.2-0.6,0.4-1,0.2c0.1,0,0.2-0.1,0.1-0.1  c0,0-0.1,0-0.3,0.1c-0.1,0-0.3,0.1-0.3,0.1c0.1,0.2,0.1,0.1,0.2,0.2c-0.1,0.1-0.2,0.2-0.4,0.2c0.3-0.1,0-0.3-0.1-0.4  c0,0.1,0,0.1,0,0.2c-0.3-0.3,0,0.3-0.5,0.2l0-0.1c-0.2,0.1-0.3,0.2-0.5,0.2c-0.1-0.2,0.2-0.1,0.2-0.3c-0.3,0-0.5,0.4-0.7,0.2  c0.1-0.1,0.3-0.1,0.4-0.1c-0.3-0.2-0.3-0.2-0.5-0.2l0,0L24,21.4l0.1,0.1C23.8,22,23.4,21.6,23,22c0.4-0.3,0.1-0.2,0.1-0.4  c-0.1-0.1-0.3-0.1-0.2-0.2c-0.2,0.2-0.3-0.1-0.6,0.1c0-0.1-0.2,0-0.2-0.2c-0.3,0.1,0.1,0.1,0,0.2c-0.4,0.3-1-0.3-1.6,0.1  c-0.5,0.2-0.6,0.4-1.1,0.5c-0.2-0.1,0.1-0.3,0.1-0.3c-0.3-0.1-0.5-0.1-0.7,0c0-0.1,0-0.1-0.1-0.2c-0.2,0-0.1,0.3-0.4,0.2  c0-0.1,0.1-0.2,0.2-0.3c-0.2,0.1-0.5,0.2-0.7,0.3c-0.1-0.1,0.1-0.2,0.2-0.3c-0.3,0.1-0.7,0.1-0.8,0.3l0.2,0.1c-0.1,0-0.1-0.2,0-0.2  c0.2-0.2,0.3,0.1,0.3,0.1l-0.2,0.1c0.2,0.4,0.7-0.1,1-0.1l-0.1,0.3l0.3-0.3c0.1,0.1,0.1,0.3,0,0.3c0.2,0.1,0.2-0.1,0.4,0.1  c0,0,0,0,0,0.1l0.2-0.1c0,0.1,0,0.2-0.1,0.2c0.4,0.2,0.7-0.2,0.9,0l0,0c0.6-0.1,0.1-0.2,0.5-0.5l0.3,0.6l0.1-0.2  c0.1,0,0.2,0,0.2,0.1c0.2-0.2,0-0.1,0.1-0.2c0.3,0.2,0.8-0.1,0.9,0.2c0.1-0.2-0.3-0.1,0-0.3c0.1,0.4,0.4-0.1,0.6,0.1  c-0.1,0.2-0.3,0.1-0.1,0.3c0.2-0.3,0.5,0.1,0.8,0c0-0.1,0.1-0.1,0.1-0.1c0,0.1-0.1,0.1-0.1,0.1c0,0,0,0.1,0,0.1  c0.1,0,0.1-0.2,0.1-0.3c0.2-0.1,0.5,0,0.7-0.1c0,0.1,0.7,0.1,1.1,0.2l0,0c0.1-0.3,0.4-0.2,0.7-0.3c0,0.2-0.1,0.2-0.2,0.3l0.3,0  c0.1-0.1,0.1-0.1,0.3-0.2l-0.1,0.2c0.4,0,0.7-0.3,1.2-0.3c-0.1-0.2-0.5-0.4-0.1-0.7c0.1,0.1,0.1,0.3,0,0.3c0,0,0.1-0.1,0.2-0.1  L27.8,22c0.2,0,0.1-0.2,0.2-0.2c0.1,0.1,0.2,0,0.2,0.2c0,0-0.2,0-0.2,0.1c0.2,0,0.4-0.1,0.6,0c-0.1-0.1-0.1-0.2,0-0.3  c0.3-0.2,0.2,0.1,0.4,0c0-0.1,0.3-0.2,0.1-0.4c0.1-0.1,0.2,0,0.2,0c0.1-0.2,0.6-0.7,0.2-0.7l0,0c0,0,0,0,0,0  c0.2-0.6,0.7-1.1,0.7-1.7l0.1,0c0-0.3,0.1-0.7,0-1c0-0.1,0.2-0.2,0.3-0.1c0-0.3-0.1-0.3,0.1-0.7c0.1,0.3,0.1-0.1,0,0.3  c0.1-0.3,0.2-0.4,0.1-0.8c0.2,0.2,0.3-0.2,0.2-0.4L31,16.5c0-0.2,0-0.3,0.1-0.5l0.2,0.1c0.4-0.7-0.4-1.3,0.2-1.8  c-0.2-0.2-0.1,0.4-0.3,0.2c0.1-0.3,0.4-0.6,0.4-0.7c0.2-0.4-0.3-0.4-0.2-0.9C31.3,13,31,13,30.9,12.7c0-0.3,0.4-0.4,0.4-0.2  c0,0.1,0,0.1-0.1,0.1c0,0.1,0.1,0.2,0.2,0.1l-0.1,0c0.1-0.2,0.1-0.6,0.2-0.5c-0.1-0.2-0.1-0.1-0.2,0.1c0.1-0.4,0-0.6,0.1-1.1  c0,0.1-0.2,0.1-0.2,0.1c0.1-0.6-0.2-0.3-0.2-0.7c0.1-0.2,0.3,0.1,0.2-0.3c0.1-0.3,0.2-0.1,0.3,0c-0.2-0.4,0.1-0.7,0.1-1L31.9,9.5z   M1.2,19.7c-0.1-0.1,0-0.2,0-0.2C1.2,19.6,1.2,19.7,1.2,19.7l0.1,0C1.3,19.7,1.2,19.7,1.2,19.7z M2.4,18.6c0,0.1,0,0.1,0,0.2  C2.4,18.7,2.4,18.6,2.4,18.6L2.4,18.6z M2.2,17.9c0,0.1,0,0.2,0.1,0.3c-0.1,0-0.1,0-0.2,0C2.2,18.2,2.2,18,2.2,17.9z"/></svg>